<svg width="42" height="33" viewBox="0 0 42 33" fill="none" xmlns="http://www.w3.org/2000/svg">
<path d="M20.6552 9.87646C18.5739 9.87646 16.5778 10.5287 15.1061 11.6897C13.6344 12.8507 12.8076 14.4253 12.8076 16.0672C12.8076 17.7091 13.6344 19.2838 15.1061 20.4447C16.5778 21.6057 18.5739 22.258 20.6552 22.258C22.7365 22.258 24.7325 21.6057 26.2042 20.4447C27.6759 19.2838 28.5027 17.7091 28.5027 16.0672C28.5027 14.4253 27.6759 12.8507 26.2042 11.6897C24.7325 10.5287 22.7365 9.87646 20.6552 9.87646ZM20.6552 20.0877C19.303 20.0877 18.0063 19.664 17.0502 18.9098C16.0941 18.1555 15.557 17.1325 15.557 16.0659C15.557 14.9992 16.0941 13.9763 17.0502 13.222C18.0063 12.4678 19.303 12.044 20.6552 12.044C22.0073 12.044 23.304 12.4678 24.2601 13.222C25.2162 13.9763 25.7534 14.9992 25.7534 16.0659C25.7534 17.1325 25.2162 18.1555 24.2601 18.9098C23.304 19.664 22.0073 20.0877 20.6552 20.0877Z" fill="white"/>
<path d="M28.8129 11.0923C29.8233 11.0923 30.6424 10.4462 30.6424 9.64907C30.6424 8.85198 29.8233 8.20581 28.8129 8.20581C27.8025 8.20581 26.9834 8.85198 26.9834 9.64907C26.9834 10.4462 27.8025 11.0923 28.8129 11.0923Z" fill="white"/>
<path d="M35.1382 8.1816C34.7453 7.38122 34.1449 6.65438 33.3755 6.04759C32.606 5.4408 31.6844 4.96743 30.6697 4.6578C29.4822 4.30616 28.2278 4.11603 26.9597 4.09549C25.3254 4.03926 24.8078 4.02319 20.6634 4.02319C16.519 4.02319 15.9877 4.02319 14.367 4.09549C13.0999 4.11498 11.8463 4.30515 10.6604 4.6578C9.64544 4.96707 8.72361 5.44031 7.95408 6.04714C7.18454 6.65398 6.58431 7.38102 6.19188 8.1816C5.74605 9.11827 5.50558 10.108 5.48078 11.1083C5.4078 12.3962 5.38574 12.8046 5.38574 16.0754C5.38574 19.3448 5.38574 19.7612 5.48078 21.0424C5.50624 22.0439 5.74553 23.0319 6.19188 23.9704C6.58541 24.7707 7.18623 25.4975 7.95595 26.1042C8.72566 26.711 9.64736 27.1844 10.6621 27.4943C11.8458 27.86 13.0999 28.0638 14.3704 28.0967C16.0047 28.153 16.5223 28.1704 20.6667 28.1704C24.8112 28.1704 25.3424 28.1704 26.9631 28.0967C28.2311 28.0764 29.4855 27.8867 30.6731 27.5358C31.6875 27.2254 32.6089 26.7516 33.3782 26.1447C34.1476 25.5377 34.7482 24.8109 35.1416 24.0106C35.588 23.0734 35.8273 22.0854 35.8527 21.0839C35.9257 19.796 35.9478 19.3876 35.9478 16.1169C35.9478 12.8461 35.9478 12.4311 35.8527 11.1498C35.833 10.1353 35.5912 9.13117 35.1382 8.1816ZM33.0711 20.9433C33.0602 21.7149 32.8816 22.4793 32.5433 23.2033C32.2884 23.7239 31.8983 24.1967 31.3979 24.5912C30.8975 24.9858 30.2979 25.2933 29.6378 25.494C28.7302 25.7597 27.7716 25.9006 26.8036 25.9104C25.1913 25.9693 24.7365 25.9841 20.6023 25.9841C16.4646 25.9841 16.0421 25.9841 14.3992 25.9104C13.4317 25.9011 12.4735 25.7602 11.5667 25.494C10.9043 25.2945 10.3023 24.9875 9.79981 24.593C9.29726 24.1984 8.90532 23.7249 8.64933 23.2033C8.31576 22.4871 8.13733 21.7317 8.12152 20.9688C8.04855 19.6969 8.03158 19.3381 8.03158 16.0767C8.03158 12.814 8.03158 12.4806 8.12152 11.1833C8.13249 10.4121 8.31102 9.64819 8.64933 8.92466C9.16696 7.86832 10.2277 7.0369 11.5667 6.63258C12.474 6.36768 13.4319 6.22686 14.3992 6.2162C16.0132 6.15863 16.4663 6.14256 20.6023 6.14256C24.7382 6.14256 25.1625 6.14256 26.8036 6.2162C27.7717 6.22539 28.7305 6.36624 29.6378 6.63258C30.2979 6.83377 30.8973 7.1416 31.3977 7.53633C31.8981 7.93105 32.2883 8.40395 32.5433 8.92466C32.8769 9.64086 33.0553 10.3962 33.0711 11.1592C33.1441 12.4324 33.1628 12.7899 33.1628 16.0526C33.1628 19.314 33.1628 19.6648 33.0898 20.9447H33.0711V20.9433Z" fill="white"/>
</svg>
