<svg width="41" height="33" viewBox="0 0 41 33" fill="none" xmlns="http://www.w3.org/2000/svg">
<path d="M32.4084 6.6606C30.113 4.80176 27.1889 3.53611 24.0058 3.0237C20.8227 2.51129 17.5235 2.77512 14.5254 3.78184C11.5273 4.78856 8.96505 6.49295 7.16256 8.67949C5.36007 10.866 4.39832 13.4365 4.39893 16.0659C4.39893 19.5925 6.12747 22.9747 9.20453 25.469C12.2816 27.9632 16.4553 29.3654 20.808 29.3672C22.962 29.3679 25.0953 29.0268 27.0874 28.3631C29.0732 27.6839 30.8795 26.7022 32.4084 25.4712C33.933 24.2361 35.1424 22.7699 35.9676 21.1561C36.7927 19.5423 37.2174 17.8127 37.2174 16.0659C37.2174 14.3191 36.7927 12.5895 35.9676 10.9757C35.1424 9.36192 33.933 7.89565 32.4084 6.6606ZM31.2516 24.5206C28.8887 26.4433 25.7882 27.6568 22.4605 27.9614V19.1787H25.5671C26.0054 19.1787 26.4257 19.0376 26.7356 18.7865C27.0455 18.5355 27.2196 18.1949 27.2196 17.8398C27.2196 17.4848 27.0455 17.1442 26.7356 16.8931C26.4257 16.6421 26.0054 16.501 25.5671 16.501H22.4605V12.8326C22.4605 12.4775 22.6346 12.137 22.9445 11.8859C23.2544 11.6348 23.6747 11.4938 24.1129 11.4938H26.0959C26.5342 11.4938 26.9545 11.3527 27.2644 11.1016C27.5743 10.8506 27.7484 10.51 27.7484 10.155C27.7484 9.79987 27.5743 9.45933 27.2644 9.20826C26.9545 8.95718 26.5342 8.81612 26.0959 8.81612H23.2867C22.191 8.81612 21.1403 9.16876 20.3655 9.79646C19.5908 10.4242 19.1555 11.2755 19.1555 12.1632V16.501H16.0654C15.6271 16.501 15.2068 16.6421 14.8969 16.8931C14.587 17.1442 14.4129 17.4848 14.4129 17.8398C14.4129 18.1949 14.587 18.5355 14.8969 18.7865C15.2068 19.0376 15.6271 19.1787 16.0654 19.1787H19.1555V27.9614C16.0867 27.6778 13.2054 26.6201 10.9187 24.9379C8.63193 23.2557 7.0553 21.0339 6.41147 18.5864C5.76765 16.1388 6.08917 13.5893 7.33063 11.2979C8.57209 9.0064 10.6707 7.08887 13.3301 5.81609C15.9895 4.54332 19.0753 3.97964 22.1515 4.20467C25.2277 4.42971 28.1389 5.43208 30.4739 7.07021C32.8089 8.70834 34.4497 10.8994 35.1645 13.334C35.8793 15.7685 35.6319 18.3235 34.4574 20.638C33.7094 22.0883 32.6206 23.4069 31.2516 24.5206Z" fill="white"/>
</svg>
