<svg width="181" height="57" viewBox="0 0 181 57" fill="none" xmlns="http://www.w3.org/2000/svg">
<path d="M55.4414 14.2617C55.4935 14.3268 55.5195 14.418 55.5195 14.5352C55.5195 14.7565 55.474 14.9779 55.3828 15.1992C55.3047 15.4076 55.2135 15.5964 55.1094 15.7656C55.0052 15.9349 54.9076 16.0716 54.8164 16.1758C54.7383 16.2799 54.6992 16.3385 54.6992 16.3516C54.6992 16.3906 54.6992 16.4362 54.6992 16.4883C54.7122 16.5404 54.7188 16.5859 54.7188 16.625C54.7188 16.6901 54.6927 16.7617 54.6406 16.8398C54.6016 16.918 54.556 16.9896 54.5039 17.0547C54.4518 17.1198 54.3997 17.1784 54.3477 17.2305C54.2956 17.2826 54.2695 17.3151 54.2695 17.3281C54.2174 17.4583 54.1914 17.6016 54.1914 17.7578C54.1914 17.901 54.1849 18.0443 54.1719 18.1875C54.1589 18.3177 54.1198 18.4414 54.0547 18.5586C53.9896 18.6628 53.8659 18.7409 53.6836 18.793C53.6315 18.7018 53.6055 18.5977 53.6055 18.4805C53.6055 18.3763 53.6185 18.2656 53.6445 18.1484C53.6706 18.0182 53.6836 17.888 53.6836 17.7578V17.6211C53.5924 17.4518 53.5208 17.2695 53.4688 17.0742C53.4297 16.8789 53.3711 16.7031 53.293 16.5469C53.2148 16.3906 53.1042 16.2604 52.9609 16.1562C52.8177 16.0521 52.6094 16 52.3359 16C52.0234 16 51.6979 16.0326 51.3594 16.0977C51.0208 16.1497 50.7279 16.1758 50.4805 16.1758C50.1419 16.1758 49.7969 16.1302 49.4453 16.0391C49.0938 15.9479 48.7747 15.9023 48.4883 15.9023C48.1497 15.9023 47.9023 16.0521 47.7461 16.3516C47.5898 16.651 47.4792 17.0742 47.4141 17.6211C47.388 17.7643 47.3359 17.9206 47.2578 18.0898C47.1927 18.2461 47.1471 18.4284 47.1211 18.6367C47.056 19.0273 47.0365 19.431 47.0625 19.8477C47.0885 20.2643 47.0625 20.6419 46.9844 20.9805C46.9323 21.2148 46.8737 21.4036 46.8086 21.5469C46.7565 21.6901 46.7044 21.8268 46.6523 21.957C46.6003 22.0872 46.5547 22.2435 46.5156 22.4258C46.4896 22.6081 46.4766 22.8555 46.4766 23.168C46.4766 23.3112 46.4831 23.4349 46.4961 23.5391C46.5091 23.6432 46.5286 23.7148 46.5547 23.7539C46.6068 23.819 46.7174 23.8776 46.8867 23.9297C47.056 23.9818 47.2643 24.0273 47.5117 24.0664C47.7591 24.0924 48.026 24.1185 48.3125 24.1445C48.612 24.1576 48.9049 24.1641 49.1914 24.1641C49.5039 24.1641 49.7969 24.1576 50.0703 24.1445C50.3568 24.1185 50.5911 24.0859 50.7734 24.0469C50.9297 24.0078 51.0664 23.9427 51.1836 23.8516C51.3008 23.7474 51.4049 23.6693 51.4961 23.6172C51.5742 23.5651 51.6523 23.5391 51.7305 23.5391C51.8086 23.5391 51.8802 23.513 51.9453 23.4609C52.0104 23.3958 52.082 23.3112 52.1602 23.207C52.2383 23.0898 52.3294 22.9792 52.4336 22.875C52.5378 22.7578 52.6549 22.6602 52.7852 22.582C52.9284 22.4909 53.0911 22.4453 53.2734 22.4453H53.3906C53.3516 22.8229 53.2604 23.1549 53.1172 23.4414C52.974 23.7148 52.7917 23.9688 52.5703 24.2031C52.362 24.4245 52.1276 24.6328 51.8672 24.8281C51.6068 25.0104 51.3398 25.1862 51.0664 25.3555C50.9232 25.4466 50.7604 25.5638 50.5781 25.707C50.4089 25.8503 50.2331 25.974 50.0508 26.0781H49.9727C49.8424 26.0781 49.6992 26.0586 49.543 26.0195C49.3867 25.9674 49.2174 25.9414 49.0352 25.9414H48.7031C48.5599 25.9414 48.4492 25.9349 48.3711 25.9219C48.306 25.9089 48.2344 25.9023 48.1562 25.9023C48.0651 25.9023 47.9544 25.9089 47.8242 25.9219C47.707 25.9349 47.5247 25.9414 47.2773 25.9414C47.1471 25.9414 47.0299 25.9414 46.9258 25.9414C46.8216 25.9284 46.737 25.9219 46.6719 25.9219C46.5156 25.9219 46.3854 26.0586 46.2812 26.332C46.1771 26.6055 46.0859 26.957 46.0078 27.3867C45.9297 27.8034 45.8581 28.2721 45.793 28.793C45.7409 29.3008 45.6953 29.7956 45.6562 30.2773C45.6302 30.7461 45.6042 31.1758 45.5781 31.5664C45.5521 31.944 45.5326 32.2109 45.5195 32.3672C45.5195 32.3932 45.4935 32.5234 45.4414 32.7578C45.3893 32.9922 45.3307 33.2656 45.2656 33.5781C45.2135 33.8776 45.1615 34.1771 45.1094 34.4766C45.0703 34.763 45.0508 34.9844 45.0508 35.1406C45.0508 35.2318 45.0638 35.2839 45.0898 35.2969C45.1289 35.2969 45.207 35.2969 45.3242 35.2969C45.4284 35.2969 45.5456 35.2969 45.6758 35.2969C45.819 35.2839 45.9622 35.2773 46.1055 35.2773C46.3919 35.2773 46.6523 35.3034 46.8867 35.3555C47.1341 35.4076 47.2578 35.5378 47.2578 35.7461C47.2578 35.8633 47.2057 35.9544 47.1016 36.0195C46.9974 36.0977 46.8607 36.1562 46.6914 36.1953C46.5221 36.2344 46.3268 36.2604 46.1055 36.2734C45.8971 36.2865 45.6823 36.293 45.4609 36.293H44.4648C44.0872 36.293 43.6836 36.3385 43.2539 36.4297C42.8372 36.5339 42.4141 36.5859 41.9844 36.5859C41.8542 36.5859 41.7305 36.5794 41.6133 36.5664C41.5091 36.5664 41.4049 36.5664 41.3008 36.5664C41.0273 36.5664 40.7474 36.6055 40.4609 36.6836C40.1745 36.7747 39.901 36.8203 39.6406 36.8203C39.4844 36.8203 39.3542 36.7943 39.25 36.7422C39.25 36.5208 39.3607 36.332 39.582 36.1758C39.8164 36.0326 40.1354 35.9609 40.5391 35.9609H40.8711C41.3008 35.9609 41.6133 35.8177 41.8086 35.5312C42.0039 35.2318 42.1406 34.8737 42.2188 34.457C42.2969 34.0273 42.3359 33.5716 42.3359 33.0898C42.349 32.5951 42.388 32.1523 42.4531 31.7617C42.4792 31.6185 42.5378 31.4753 42.6289 31.332C42.7201 31.1888 42.7656 31.026 42.7656 30.8438C42.7656 30.7526 42.7591 30.668 42.7461 30.5898C42.7331 30.4987 42.7266 30.4141 42.7266 30.3359C42.7266 30.2318 42.7786 30.1471 42.8828 30.082C42.987 30.0039 43.0391 29.9323 43.0391 29.8672C43.1042 29.6849 43.1302 29.5286 43.1172 29.3984C43.1042 29.2552 43.1302 29.0729 43.1953 28.8516C43.2344 28.7344 43.2669 28.5781 43.293 28.3828C43.332 28.1875 43.3646 27.9792 43.3906 27.7578C43.4297 27.5365 43.4557 27.3086 43.4688 27.0742C43.4948 26.8398 43.5078 26.625 43.5078 26.4297C43.5078 26.3646 43.4948 26.3125 43.4688 26.2734C43.4557 26.2344 43.3971 26.2148 43.293 26.2148C43.0586 26.2148 42.8698 26.2539 42.7266 26.332C42.5833 26.4102 42.4466 26.5013 42.3164 26.6055C42.1992 26.6966 42.0625 26.7812 41.9062 26.8594C41.75 26.9375 41.5482 26.9766 41.3008 26.9766C41.2487 26.9766 41.2031 26.9701 41.1641 26.957C41.138 26.931 41.125 26.8789 41.125 26.8008C41.125 26.6055 41.1901 26.4232 41.3203 26.2539C41.4635 26.0716 41.6263 25.9154 41.8086 25.7852C41.9909 25.6419 42.1667 25.5247 42.3359 25.4336C42.5182 25.3294 42.6549 25.2513 42.7461 25.1992C42.7852 25.1862 42.8503 25.1536 42.9414 25.1016C43.0456 25.0365 43.1497 24.9714 43.2539 24.9062C43.3711 24.8411 43.4753 24.7695 43.5664 24.6914C43.6576 24.6133 43.7227 24.5417 43.7617 24.4766C43.7878 24.4115 43.8073 24.3138 43.8203 24.1836C43.8333 24.0404 43.8398 23.8906 43.8398 23.7344C43.8529 23.5651 43.8594 23.3958 43.8594 23.2266C43.8724 23.0443 43.8919 22.8815 43.918 22.7383C43.9831 22.3216 44.0482 21.9505 44.1133 21.625C44.1784 21.2865 44.2109 21.0065 44.2109 20.7852C44.2109 20.6289 44.2044 20.4661 44.1914 20.2969C44.1914 20.1276 44.1914 19.9518 44.1914 19.7695C44.1914 19.2747 44.2305 18.7799 44.3086 18.2852C44.3867 17.7773 44.4258 17.3346 44.4258 16.957C44.4258 16.7357 44.3997 16.5729 44.3477 16.4688C44.2956 16.3516 44.2305 16.2669 44.1523 16.2148C44.0872 16.1628 44.0286 16.1302 43.9766 16.1172C43.9245 16.0911 43.8984 16.0586 43.8984 16.0195H43.8789C43.7617 16.0195 43.6315 16.0716 43.4883 16.1758C43.3581 16.2669 43.2214 16.3125 43.0781 16.3125C42.8828 16.3125 42.681 16.293 42.4727 16.2539C42.2643 16.2018 42.1602 16.0846 42.1602 15.9023C42.1602 15.5768 42.2773 15.3945 42.5117 15.3555C42.7591 15.3164 43.0716 15.2969 43.4492 15.2969C43.5794 15.2969 43.7161 15.3034 43.8594 15.3164C44.0026 15.3164 44.1523 15.3164 44.3086 15.3164C44.6732 15.3164 45.1159 15.2773 45.6367 15.1992C46.1706 15.1211 46.7174 15.0365 47.2773 14.9453C47.8503 14.8411 48.4102 14.75 48.957 14.6719C49.5169 14.5938 50.0117 14.5547 50.4414 14.5547C50.6237 14.5547 50.7865 14.5612 50.9297 14.5742C51.0859 14.5742 51.2292 14.5742 51.3594 14.5742C51.5286 14.5742 51.7565 14.5547 52.043 14.5156C52.3294 14.4635 52.6354 14.4115 52.9609 14.3594C53.2995 14.2943 53.651 14.2422 54.0156 14.2031C54.3802 14.151 54.7318 14.125 55.0703 14.125C55.2396 14.125 55.3633 14.1706 55.4414 14.2617ZM61.4766 20.0625C61.4505 20.1667 61.3854 20.362 61.2812 20.6484C61.1771 20.9219 61.099 21.2083 61.0469 21.5078C60.9688 21.9505 60.9362 22.3867 60.9492 22.8164C60.9622 23.2461 60.9492 23.6432 60.9102 24.0078C60.8451 24.5026 60.7474 24.9844 60.6172 25.4531C60.5 25.9219 60.4023 26.4036 60.3242 26.8984C60.2461 27.3542 60.181 27.6927 60.1289 27.9141C60.0898 28.1354 60.0508 28.3307 60.0117 28.5C59.9857 28.6693 59.9661 28.8516 59.9531 29.0469C59.9401 29.2422 59.9336 29.5286 59.9336 29.9062C59.9336 30.0495 59.9336 30.1797 59.9336 30.2969C59.9466 30.401 59.9531 30.5052 59.9531 30.6094C59.9531 30.7917 59.9141 30.9674 59.8359 31.1367C59.7578 31.293 59.7188 31.4622 59.7188 31.6445C59.7188 31.7878 59.7318 31.9375 59.7578 32.0938C59.7839 32.25 59.7969 32.4062 59.7969 32.5625C59.7969 32.7057 59.7773 32.8164 59.7383 32.8945C59.7122 32.9727 59.6732 33.0312 59.6211 33.0703C59.582 33.1094 59.5365 33.1419 59.4844 33.168C59.4453 33.181 59.4062 33.2135 59.3672 33.2656C59.3151 33.3568 59.2565 33.4935 59.1914 33.6758C59.1393 33.8451 59.1003 33.9492 59.0742 33.9883C59.0091 34.0664 58.918 34.1185 58.8008 34.1445C58.6836 34.1706 58.5794 34.2161 58.4883 34.2812C58.293 34.4375 58.0716 34.6589 57.8242 34.9453C57.5898 35.2188 57.3555 35.4987 57.1211 35.7852C56.8997 36.0586 56.6914 36.293 56.4961 36.4883C56.3008 36.6966 56.151 36.8008 56.0469 36.8008C55.9818 36.8008 55.9297 36.7878 55.8906 36.7617C55.8646 36.7487 55.8516 36.6966 55.8516 36.6055C55.8516 36.4883 55.8841 36.3841 55.9492 36.293C56.0143 36.2018 56.0859 36.1042 56.1641 36C56.2552 35.9089 56.3398 35.8112 56.418 35.707C56.5091 35.5898 56.5742 35.4596 56.6133 35.3164V35.2969C56.6133 35.0365 56.6589 34.8281 56.75 34.6719C56.8411 34.5156 56.8867 34.4049 56.8867 34.3398C56.8867 34.2617 56.8607 34.2096 56.8086 34.1836C56.7565 34.1576 56.7305 34.112 56.7305 34.0469C56.7305 33.9948 56.7435 33.9232 56.7695 33.832C56.8086 33.7279 56.8477 33.6172 56.8867 33.5C56.9258 33.3828 56.9583 33.2656 56.9844 33.1484C57.0234 33.0312 57.043 32.9401 57.043 32.875C57.043 32.7188 57.0234 32.5885 56.9844 32.4844C56.9583 32.3672 56.9453 32.2435 56.9453 32.1133C56.9453 31.931 57.0039 31.7617 57.1211 31.6055C57.2513 31.4492 57.3164 31.319 57.3164 31.2148C57.3034 31.1628 57.2969 31.1107 57.2969 31.0586C57.2969 31.0065 57.2969 30.9479 57.2969 30.8828C57.2969 30.5573 57.3294 30.2383 57.3945 29.9258C57.4727 29.6133 57.5573 29.3203 57.6484 29.0469C57.7396 28.7734 57.8177 28.526 57.8828 28.3047C57.9609 28.0833 58 27.9076 58 27.7773C58 27.7122 57.9935 27.6667 57.9805 27.6406V27.5625C57.9805 27.4193 57.9544 27.276 57.9023 27.1328C57.8633 26.9896 57.8438 26.8464 57.8438 26.7031C57.8438 26.5729 57.8828 26.4297 57.9609 26.2734C58.0521 26.1042 58.1107 25.9284 58.1367 25.7461C58.1888 25.4466 58.2148 25.0951 58.2148 24.6914C58.2148 24.2747 58.2344 23.8971 58.2734 23.5586C58.2995 23.2852 58.3581 23.0312 58.4492 22.7969C58.5404 22.5625 58.5859 22.4258 58.5859 22.3867C58.5208 22.2695 58.4427 22.1654 58.3516 22.0742C58.2604 21.9701 58.1823 21.918 58.1172 21.918C58.013 21.918 57.9154 21.957 57.8242 22.0352C57.7331 22.1133 57.6419 22.2109 57.5508 22.3281C57.4727 22.4323 57.3945 22.5495 57.3164 22.6797C57.2383 22.7969 57.1667 22.8945 57.1016 22.9727C56.9974 23.1029 56.8346 23.2721 56.6133 23.4805C56.4049 23.6888 56.2292 23.8646 56.0859 24.0078C55.9948 24.112 55.9232 24.2422 55.8711 24.3984C55.819 24.5417 55.7018 24.6133 55.5195 24.6133C55.4674 24.6133 55.4219 24.6068 55.3828 24.5938C55.3568 24.5677 55.3438 24.5091 55.3438 24.418C55.3438 24.3008 55.3698 24.1901 55.4219 24.0859C55.487 23.9688 55.5586 23.8581 55.6367 23.7539C55.7148 23.6367 55.793 23.5326 55.8711 23.4414C55.9622 23.3372 56.0339 23.2331 56.0859 23.1289C56.1901 22.9206 56.3594 22.6667 56.5938 22.3672C56.8281 22.0547 57.1016 21.7227 57.4141 21.3711C57.7396 21.0195 58.0977 20.6615 58.4883 20.2969C58.8919 19.9193 59.3086 19.5482 59.7383 19.1836C59.8685 19.0794 59.9596 18.9948 60.0117 18.9297C60.0768 18.8646 60.1289 18.819 60.168 18.793C60.207 18.7539 60.2461 18.7344 60.2852 18.7344C60.3242 18.7214 60.3893 18.7148 60.4805 18.7148C60.9102 18.7148 61.1966 18.7865 61.3398 18.9297C61.4831 19.0599 61.5547 19.2552 61.5547 19.5156C61.5547 19.5938 61.5482 19.6784 61.5352 19.7695C61.5221 19.8607 61.5026 19.9583 61.4766 20.0625ZM68.918 20.3359C68.9049 20.4141 68.8659 20.4531 68.8008 20.4531H68.7422C68.6641 20.4531 68.625 20.4922 68.625 20.5703C68.625 20.6094 68.625 20.6484 68.625 20.6875C68.638 20.7135 68.6445 20.7396 68.6445 20.7656C68.6445 20.8307 68.5859 20.9609 68.4688 21.1562C68.3516 21.3516 68.1823 21.5859 67.9609 21.8594C67.7526 22.1198 67.4922 22.3932 67.1797 22.6797C66.8802 22.9531 66.5417 23.194 66.1641 23.4023C65.9557 23.5195 65.7214 23.6562 65.4609 23.8125C65.2005 23.9557 64.9076 24.0273 64.582 24.0273C64.556 24.0273 64.5234 24.0273 64.4844 24.0273C64.4583 24.0143 64.4323 24.0078 64.4062 24.0078C64.3932 24.0078 64.3346 24.0013 64.2305 23.9883C64.1263 23.9753 64.0091 23.9622 63.8789 23.9492C63.7617 23.9362 63.638 23.9232 63.5078 23.9102C63.3776 23.8971 63.2865 23.8776 63.2344 23.8516C63.1172 23.8125 62.987 23.6823 62.8438 23.4609C62.7005 23.2266 62.5378 23.0182 62.3555 22.8359C62.2643 22.7448 62.1667 22.6667 62.0625 22.6016C61.9583 22.5234 61.8607 22.4453 61.7695 22.3672C61.6914 22.2891 61.6198 22.2109 61.5547 22.1328C61.5026 22.0417 61.4766 21.944 61.4766 21.8398C61.5156 21.8398 61.6198 21.7357 61.7891 21.5273C61.9714 21.306 62.1667 21.0716 62.375 20.8242C62.5964 20.5638 62.8047 20.3229 63 20.1016C63.1953 19.8802 63.3255 19.7695 63.3906 19.7695C63.4427 19.7695 63.4883 19.7305 63.5273 19.6523C63.5794 19.5742 63.625 19.4896 63.6641 19.3984C63.7031 19.2943 63.7487 19.1966 63.8008 19.1055C63.8529 19.0013 63.9115 18.9297 63.9766 18.8906C64.1458 18.9036 64.263 18.9883 64.3281 19.1445C64.3932 19.3008 64.4388 19.4896 64.4648 19.7109C64.4909 19.9323 64.5104 20.1797 64.5234 20.4531C64.5495 20.7135 64.6016 20.9544 64.6797 21.1758C64.7578 21.3971 64.888 21.5859 65.0703 21.7422C65.2526 21.8854 65.5195 21.957 65.8711 21.957C65.9492 21.957 66.0208 21.9505 66.0859 21.9375C66.1641 21.9245 66.2422 21.8984 66.3203 21.8594C66.3984 21.8203 66.4896 21.7617 66.5938 21.6836C66.7109 21.6055 66.8542 21.5013 67.0234 21.3711C67.1797 21.2539 67.3164 21.1172 67.4336 20.9609C67.5638 20.7917 67.6875 20.6289 67.8047 20.4727C67.9349 20.3034 68.0781 20.1536 68.2344 20.0234C68.3906 19.8932 68.5729 19.8086 68.7812 19.7695C68.8073 19.8216 68.8398 19.8867 68.8789 19.9648C68.918 20.0299 68.9375 20.1081 68.9375 20.1992C68.9375 20.2253 68.931 20.2513 68.918 20.2773C68.918 20.2904 68.918 20.3099 68.918 20.3359ZM82.8828 31.1367C83.026 31.2799 83.0977 31.4102 83.0977 31.5273C83.0977 31.6055 83.0651 31.6836 83 31.7617C82.9479 31.8268 82.8828 31.8919 82.8047 31.957C82.7266 32.0091 82.6484 32.0677 82.5703 32.1328C82.5052 32.1849 82.4596 32.2435 82.4336 32.3086C82.3164 32.5951 82.1146 32.9141 81.8281 33.2656C81.5547 33.6042 81.2747 33.9622 80.9883 34.3398C80.832 34.5482 80.6497 34.8086 80.4414 35.1211C80.2461 35.4206 80.0378 35.7005 79.8164 35.9609C79.7904 35.987 79.7383 36.0065 79.6602 36.0195C79.582 36.0456 79.5365 36.0716 79.5234 36.0977C79.4193 36.3581 79.2826 36.6055 79.1133 36.8398C78.957 37.0742 78.7227 37.1914 78.4102 37.1914C78.0326 37.1914 77.7461 37.1003 77.5508 36.918C77.3555 36.7487 77.2188 36.5469 77.1406 36.3125C77.0625 36.0781 77.0169 35.8372 77.0039 35.5898C77.0039 35.3424 77.0039 35.1471 77.0039 35.0039C77.0039 34.5352 77.043 34.0208 77.1211 33.4609C77.1992 32.901 77.2839 32.3477 77.375 31.8008C77.4792 31.2539 77.5703 30.7331 77.6484 30.2383C77.7266 29.7305 77.7656 29.3008 77.7656 28.9492H77.6875C77.5833 28.9492 77.4466 29.0664 77.2773 29.3008C77.1081 29.5221 76.9128 29.8021 76.6914 30.1406C76.4831 30.4792 76.2552 30.8438 76.0078 31.2344C75.7734 31.625 75.5391 31.9831 75.3047 32.3086C75.1745 32.4779 75.0312 32.6471 74.875 32.8164C74.7318 32.9857 74.5885 33.1354 74.4453 33.2656C74.3151 33.3958 74.2044 33.5 74.1133 33.5781C74.0221 33.6562 73.9766 33.6888 73.9766 33.6758C73.9766 33.7018 73.9766 33.7344 73.9766 33.7734C73.9896 33.8125 73.9961 33.8451 73.9961 33.8711C73.9961 33.9622 73.9375 34.0664 73.8203 34.1836C73.7161 34.2878 73.599 34.3919 73.4688 34.4961C73.3385 34.5872 73.2148 34.6654 73.0977 34.7305C72.9935 34.7956 72.9414 34.8346 72.9414 34.8477C72.9414 34.8737 72.9414 34.9062 72.9414 34.9453C72.9544 34.9844 72.9609 35.0169 72.9609 35.043C72.9609 35.0951 72.9154 35.1276 72.8242 35.1406C72.7461 35.1536 72.694 35.1797 72.668 35.2188C72.6289 35.3229 72.5898 35.4466 72.5508 35.5898C72.5247 35.7201 72.4206 35.7917 72.2383 35.8047C72.1471 35.8047 72.0495 35.8633 71.9453 35.9805C71.8411 36.0977 71.737 36.2214 71.6328 36.3516C71.5286 36.4948 71.4245 36.625 71.3203 36.7422C71.2292 36.8724 71.1445 36.9505 71.0664 36.9766C70.806 37.0547 70.6042 37.0938 70.4609 37.0938C70.2786 37.0938 70.1029 37.0221 69.9336 36.8789C69.7773 36.7357 69.6406 36.5729 69.5234 36.3906C69.4062 36.2214 69.3086 36.0521 69.2305 35.8828C69.1654 35.7135 69.1328 35.5964 69.1328 35.5312C69.1328 35.1797 69.1458 34.7956 69.1719 34.3789C69.1979 33.9622 69.2305 33.5521 69.2695 33.1484C69.3216 32.7318 69.3867 32.3477 69.4648 31.9961C69.543 31.6445 69.6406 31.3581 69.7578 31.1367C69.8229 30.9935 69.8555 30.7917 69.8555 30.5312C69.8555 30.4401 69.849 30.349 69.8359 30.2578C69.8359 30.1536 69.8359 30.0495 69.8359 29.9453C69.8359 29.7891 69.849 29.6393 69.875 29.4961C69.9141 29.3398 69.9531 29.1641 69.9922 28.9688C70.0443 28.7734 70.0964 28.5456 70.1484 28.2852C70.2135 28.0247 70.2721 27.7122 70.3242 27.3477C70.3503 27.1003 70.3698 26.8529 70.3828 26.6055C70.4089 26.3581 70.4414 26.1172 70.4805 25.8828C70.5456 25.5182 70.6172 25.1276 70.6953 24.7109C70.7865 24.2943 70.832 23.8581 70.832 23.4023C70.832 23.3503 70.832 23.2786 70.832 23.1875C70.832 23.0964 70.8255 23.0117 70.8125 22.9336C70.7995 22.8424 70.7799 22.7643 70.7539 22.6992C70.7409 22.6341 70.7148 22.6016 70.6758 22.6016C70.5716 22.6016 70.4674 22.6602 70.3633 22.7773C70.2591 22.8945 70.1549 23.0312 70.0508 23.1875C69.9466 23.3438 69.8424 23.5 69.7383 23.6562C69.6471 23.8125 69.556 23.9297 69.4648 24.0078C69.3346 24.125 69.1654 24.2227 68.957 24.3008C68.7617 24.3789 68.5924 24.4701 68.4492 24.5742C68.3971 24.6133 68.3581 24.6719 68.332 24.75C68.306 24.8151 68.2734 24.8802 68.2344 24.9453C68.1953 25.0104 68.1367 25.069 68.0586 25.1211C67.9935 25.1732 67.8958 25.1992 67.7656 25.1992C67.7135 25.1992 67.6615 25.1927 67.6094 25.1797C67.5703 25.1536 67.5508 25.0885 67.5508 24.9844C67.5508 24.737 67.6419 24.5286 67.8242 24.3594C68.0195 24.1771 68.1758 24.0078 68.293 23.8516C68.3451 23.7865 68.3646 23.7148 68.3516 23.6367C68.3516 23.5456 68.3841 23.4674 68.4492 23.4023C68.5143 23.3372 68.6185 23.2591 68.7617 23.168C68.9049 23.0768 69.0417 22.9661 69.1719 22.8359C69.224 22.7708 69.25 22.6992 69.25 22.6211C69.25 22.5299 69.2695 22.4518 69.3086 22.3867C69.3867 22.3086 69.5169 22.224 69.6992 22.1328C69.8945 22.0417 70.0573 21.9375 70.1875 21.8203C70.2266 21.7812 70.2786 21.7161 70.3438 21.625C70.4089 21.5208 70.4805 21.4232 70.5586 21.332C70.6367 21.2279 70.7148 21.1367 70.793 21.0586C70.8841 20.9805 70.9753 20.9414 71.0664 20.9414C71.1315 20.9414 71.2031 20.8893 71.2812 20.7852C71.3724 20.668 71.4635 20.5378 71.5547 20.3945C71.6458 20.2383 71.737 20.0885 71.8281 19.9453C71.9193 19.8021 72.0039 19.6979 72.082 19.6328C72.1732 19.5547 72.2969 19.4961 72.4531 19.457C72.6094 19.4049 72.7786 19.3789 72.9609 19.3789C73.1693 19.3789 73.3516 19.418 73.5078 19.4961C73.6641 19.5612 73.7422 19.6979 73.7422 19.9062C73.7422 19.9974 73.7292 20.1146 73.7031 20.2578C73.6901 20.401 73.6706 20.5443 73.6445 20.6875C73.6185 20.8307 73.5924 20.974 73.5664 21.1172C73.5534 21.2474 73.5469 21.3451 73.5469 21.4102C73.5469 21.5273 73.5599 21.6185 73.5859 21.6836C73.625 21.7487 73.6445 21.8268 73.6445 21.918C73.6445 21.9701 73.6055 22.0807 73.5273 22.25C73.4492 22.4193 73.3646 22.6276 73.2734 22.875C73.1953 23.1094 73.1172 23.3763 73.0391 23.6758C72.9609 23.9622 72.9219 24.2487 72.9219 24.5352C72.9219 24.7305 72.9284 24.9128 72.9414 25.082C72.9544 25.2513 72.9609 25.4206 72.9609 25.5898C72.9609 25.9023 72.9154 26.1953 72.8242 26.4688C72.8112 26.4948 72.7786 26.5208 72.7266 26.5469C72.6875 26.5599 72.668 26.599 72.668 26.6641C72.668 26.7161 72.6745 26.7943 72.6875 26.8984C72.7005 26.9896 72.707 27.0938 72.707 27.2109C72.707 27.3542 72.6875 27.4518 72.6484 27.5039C72.6224 27.543 72.5833 27.5755 72.5312 27.6016C72.4922 27.6146 72.4531 27.6341 72.4141 27.6602C72.388 27.6862 72.375 27.7513 72.375 27.8555C72.375 27.9727 72.3945 28.0898 72.4336 28.207C72.4857 28.3112 72.5117 28.4674 72.5117 28.6758C72.5117 28.8581 72.4792 29.0729 72.4141 29.3203C72.349 29.5677 72.2773 29.8542 72.1992 30.1797C72.1211 30.5052 72.0495 30.8698 71.9844 31.2734C71.9193 31.6641 71.8867 32.0938 71.8867 32.5625C71.8867 32.9661 71.8997 33.2982 71.9258 33.5586C71.9648 33.806 72.0365 33.9297 72.1406 33.9297C72.3359 33.9297 72.5638 33.819 72.8242 33.5977C73.0977 33.3633 73.3841 33.0638 73.6836 32.6992C73.9831 32.3216 74.2826 31.9115 74.582 31.4688C74.8945 31.013 75.181 30.5638 75.4414 30.1211C75.7148 29.6654 75.9492 29.2487 76.1445 28.8711C76.3529 28.4805 76.5091 28.168 76.6133 27.9336C76.9128 27.2174 77.1927 26.5143 77.4531 25.8242C77.7266 25.1341 78.0326 24.3789 78.3711 23.5586C78.3971 23.4544 78.4102 23.3503 78.4102 23.2461C78.4102 23.1289 78.4102 23.0117 78.4102 22.8945V22.4453C78.4102 22.1589 78.4492 21.944 78.5273 21.8008C78.6185 21.6576 78.7292 21.5534 78.8594 21.4883C79.0026 21.4102 79.1589 21.3516 79.3281 21.3125C79.4974 21.2604 79.6602 21.1823 79.8164 21.0781C79.9987 20.9609 80.1745 20.8242 80.3438 20.668C80.513 20.5117 80.6758 20.362 80.832 20.2188C81.0013 20.0755 81.1641 19.9518 81.3203 19.8477C81.4896 19.7305 81.6719 19.6589 81.8672 19.6328C81.8672 19.7109 81.8477 19.7826 81.8086 19.8477C81.7695 19.8997 81.724 19.9648 81.6719 20.043C81.6198 20.1081 81.5677 20.1862 81.5156 20.2773C81.4635 20.3685 81.431 20.4922 81.418 20.6484C81.4049 20.7656 81.3724 20.9349 81.3203 21.1562C81.2812 21.3646 81.2161 21.5859 81.125 21.8203C81.112 21.8464 81.0859 21.8594 81.0469 21.8594C81.0078 21.8464 80.9883 21.8789 80.9883 21.957C80.9753 22.1133 80.9557 22.3802 80.9297 22.7578C80.9036 23.1354 80.8711 23.5 80.832 23.8516C80.806 24.099 80.7279 24.3594 80.5977 24.6328C80.4674 24.8932 80.3958 25.1732 80.3828 25.4727C80.3828 25.5378 80.3893 25.5768 80.4023 25.5898C80.4284 25.6029 80.4414 25.6354 80.4414 25.6875C80.4414 25.8438 80.3828 26 80.2656 26.1562C80.1615 26.2995 80.1094 26.4232 80.1094 26.5273C80.1094 26.6966 80.1289 26.8789 80.168 27.0742C80.2201 27.2695 80.2461 27.4583 80.2461 27.6406C80.2461 27.862 80.207 28.0768 80.1289 28.2852C80.0508 28.4805 79.9922 28.7018 79.9531 28.9492C79.901 29.1966 79.875 29.444 79.875 29.6914C79.875 29.9388 79.8555 30.1797 79.8164 30.4141C79.7383 30.8958 79.6471 31.3646 79.543 31.8203C79.4388 32.263 79.3867 32.6341 79.3867 32.9336C79.3867 33.0898 79.4062 33.2396 79.4453 33.3828C79.4844 33.513 79.5234 33.6302 79.5625 33.7344C79.6146 33.8385 79.6536 33.9232 79.6797 33.9883C79.7188 34.0534 79.7383 34.0859 79.7383 34.0859C79.8294 34.0859 79.9466 34.0534 80.0898 33.9883C80.2331 33.9102 80.3698 33.8255 80.5 33.7344C80.6302 33.6432 80.7409 33.5521 80.832 33.4609C80.9362 33.3698 80.9883 33.3047 80.9883 33.2656C80.9883 33.2396 80.9818 33.2135 80.9688 33.1875C80.9688 33.1484 80.9688 33.1159 80.9688 33.0898C80.9688 33.0117 81.0208 32.9661 81.125 32.9531C81.2292 32.9401 81.2812 32.8945 81.2812 32.8164C81.2812 32.7904 81.2747 32.7578 81.2617 32.7188C81.2617 32.6797 81.2617 32.6471 81.2617 32.6211C81.2617 32.569 81.2943 32.4974 81.3594 32.4062C81.4375 32.3151 81.5156 32.224 81.5938 32.1328C81.6849 32.0286 81.7695 31.944 81.8477 31.8789C81.9258 31.8008 81.9779 31.7487 82.0039 31.7227C82.0299 31.6966 82.0495 31.651 82.0625 31.5859C82.0885 31.5208 82.1211 31.4557 82.1602 31.3906C82.2122 31.3125 82.2839 31.2474 82.375 31.1953C82.4661 31.1432 82.5898 31.1172 82.7461 31.1172C82.7721 31.1172 82.7917 31.1237 82.8047 31.1367C82.8307 31.1367 82.8568 31.1367 82.8828 31.1367ZM96.5156 18.2656C96.5026 18.3047 96.4961 18.3568 96.4961 18.4219C96.4961 18.487 96.4961 18.5456 96.4961 18.5977C96.5091 18.6367 96.5156 18.6823 96.5156 18.7344C96.5156 18.8776 96.4896 18.9883 96.4375 19.0664C96.3854 19.1315 96.3203 19.1836 96.2422 19.2227C96.1641 19.2617 96.0794 19.2943 95.9883 19.3203C95.9102 19.3464 95.8451 19.3854 95.793 19.4375C95.7539 19.4766 95.6953 19.5417 95.6172 19.6328C95.5391 19.7109 95.4544 19.7956 95.3633 19.8867C95.2852 19.9779 95.2005 20.0625 95.1094 20.1406C95.0312 20.2188 94.9661 20.2773 94.9141 20.3164C94.7708 20.3945 94.582 20.4661 94.3477 20.5312C94.1263 20.5833 93.9245 20.6549 93.7422 20.7461C93.5599 20.8372 93.4102 20.9219 93.293 21C93.1758 21.0651 93.0651 21.1237 92.9609 21.1758C92.8568 21.2279 92.7331 21.2669 92.5898 21.293C92.4466 21.319 92.2513 21.332 92.0039 21.332C92.0039 21.306 91.9909 21.2734 91.9648 21.2344C91.9388 21.1953 91.9128 21.1758 91.8867 21.1758C91.8737 21.1758 91.8607 21.1823 91.8477 21.1953C91.7305 21.3255 91.5938 21.3971 91.4375 21.4102C91.2943 21.4232 91.151 21.4622 91.0078 21.5273C90.8776 21.5794 90.7604 21.7096 90.6562 21.918C90.5651 22.1263 90.5195 22.4909 90.5195 23.0117C90.5195 23.1419 90.526 23.2721 90.5391 23.4023C90.5521 23.5326 90.5586 23.6628 90.5586 23.793C90.5586 24.1445 90.526 24.5352 90.4609 24.9648C90.3958 25.3815 90.3242 25.8242 90.2461 26.293C90.168 26.7487 90.0833 27.224 89.9922 27.7188C89.9141 28.2005 89.8555 28.6953 89.8164 29.2031C89.7513 29.9323 89.6797 30.681 89.6016 31.4492C89.5365 32.2174 89.5039 32.9727 89.5039 33.7148C89.8424 33.6107 90.1159 33.4284 90.3242 33.168C90.5456 32.8945 90.7669 32.6406 90.9883 32.4062C91.1055 32.276 91.2357 32.1393 91.3789 31.9961C91.5352 31.8398 91.6914 31.6836 91.8477 31.5273C91.8607 31.5143 91.8737 31.4818 91.8867 31.4297C91.9128 31.3646 91.9388 31.2995 91.9648 31.2344C92.0039 31.1562 92.043 31.0911 92.082 31.0391C92.1211 30.974 92.1602 30.9414 92.1992 30.9414C92.2253 30.9414 92.2578 30.9479 92.2969 30.9609C92.3359 30.974 92.3685 30.9805 92.3945 30.9805C92.4336 30.9805 92.4727 30.9479 92.5117 30.8828C92.5508 30.8177 92.5964 30.7461 92.6484 30.668C92.7135 30.5898 92.7852 30.5182 92.8633 30.4531C92.9414 30.388 93.0391 30.3555 93.1562 30.3555C93.1953 30.3555 93.2279 30.362 93.2539 30.375C93.293 30.375 93.3125 30.4076 93.3125 30.4727C93.3125 30.668 93.2344 30.8372 93.0781 30.9805C92.9349 31.1237 92.8177 31.2604 92.7266 31.3906C92.3359 31.9505 91.8997 32.5104 91.418 33.0703C90.9492 33.6302 90.513 34.2812 90.1094 35.0234C90.0443 35.1146 89.9922 35.1797 89.9531 35.2188C89.9141 35.2578 89.875 35.2969 89.8359 35.3359C89.7969 35.362 89.7383 35.3945 89.6602 35.4336C89.5951 35.4727 89.4974 35.5378 89.3672 35.6289C89.237 35.707 89.1263 35.8047 89.0352 35.9219C88.944 36.0391 88.8464 36.1497 88.7422 36.2539C88.651 36.3711 88.5404 36.4622 88.4102 36.5273C88.2799 36.6055 88.1172 36.6445 87.9219 36.6445C87.8177 36.6315 87.7005 36.5599 87.5703 36.4297C87.4401 36.2995 87.3164 36.1562 87.1992 36C87.0951 35.8307 87.0039 35.6615 86.9258 35.4922C86.8477 35.3229 86.8086 35.1992 86.8086 35.1211C86.8086 35.0299 86.8151 34.8867 86.8281 34.6914C86.8542 34.4831 86.8867 34.2487 86.9258 33.9883C86.9648 33.7279 87.0039 33.4544 87.043 33.168C87.0951 32.8685 87.1406 32.569 87.1797 32.2695C87.2057 32.2695 87.2383 32.263 87.2773 32.25C87.3164 32.224 87.3359 32.1979 87.3359 32.1719C87.3099 32.1328 87.2904 32.0872 87.2773 32.0352C87.2383 31.957 87.2188 31.8333 87.2188 31.6641C87.2188 31.4557 87.2383 31.2083 87.2773 30.9219C87.3164 30.6224 87.3555 30.3294 87.3945 30.043C87.4466 29.7435 87.4922 29.4701 87.5312 29.2227C87.5833 28.9622 87.6159 28.7604 87.6289 28.6172C87.6419 28.4089 87.6484 28.207 87.6484 28.0117C87.6484 27.8164 87.6549 27.6211 87.668 27.4258C87.681 27.2305 87.707 27.0286 87.7461 26.8203C87.7852 26.612 87.8438 26.3841 87.9219 26.1367C87.9609 25.8763 87.9805 25.6094 87.9805 25.3359C87.9935 25.0625 88.0195 24.7956 88.0586 24.5352C88.0846 24.4049 88.1302 24.2552 88.1953 24.0859C88.2604 23.9167 88.3125 23.7279 88.3516 23.5195C88.3776 23.3763 88.3971 23.2135 88.4102 23.0312C88.4232 22.8359 88.4362 22.6536 88.4492 22.4844C88.4622 22.3151 88.4688 22.1719 88.4688 22.0547C88.4818 21.9375 88.4883 21.8854 88.4883 21.8984C88.4362 21.8203 88.2799 21.7617 88.0195 21.7227C87.7721 21.6836 87.5052 21.6641 87.2188 21.6641C86.8021 21.6641 86.457 21.7161 86.1836 21.8203C85.9102 21.9115 85.7083 22.0872 85.5781 22.3477C85.5391 22.4258 85.5065 22.5104 85.4805 22.6016C85.4674 22.6927 85.4414 22.7839 85.4023 22.875C85.3763 22.9531 85.3242 23.0182 85.2461 23.0703C85.181 23.1224 85.0703 23.1484 84.9141 23.1484C84.8359 23.1484 84.7513 23.1354 84.6602 23.1094C84.582 23.0833 84.543 23.0117 84.543 22.8945C84.543 22.7122 84.5885 22.556 84.6797 22.4258C84.7708 22.2956 84.8815 22.1719 85.0117 22.0547C85.1549 21.9375 85.3047 21.8268 85.4609 21.7227C85.6172 21.6055 85.7539 21.4753 85.8711 21.332C85.9362 21.2669 85.9622 21.1953 85.9492 21.1172C85.9362 21.0391 85.9557 20.9609 86.0078 20.8828C86.0339 20.8438 86.0794 20.8177 86.1445 20.8047C86.2227 20.7917 86.2747 20.7721 86.3008 20.7461C86.3008 20.7461 86.3464 20.6615 86.4375 20.4922C86.5286 20.3099 86.6654 20.1081 86.8477 19.8867C87.0299 19.6654 87.2448 19.4635 87.4922 19.2812C87.7526 19.099 88.0391 19.0078 88.3516 19.0078C88.3776 19.0078 88.4427 19.0404 88.5469 19.1055C88.651 19.1576 88.7422 19.1836 88.8203 19.1836C88.9635 19.1836 89.0612 19.0794 89.1133 18.8711C89.1784 18.6497 89.2174 18.3958 89.2305 18.1094C89.2565 17.8229 89.2695 17.543 89.2695 17.2695C89.2826 16.9831 89.3151 16.7812 89.3672 16.6641C89.4453 16.4688 89.582 16.2539 89.7773 16.0195C89.9857 15.7852 90.1875 15.5573 90.3828 15.3359C90.5651 15.1276 90.7214 14.9388 90.8516 14.7695C90.9818 14.6003 91.112 14.457 91.2422 14.3398C91.3724 14.2096 91.5156 14.1055 91.6719 14.0273C91.8411 13.9492 92.0495 13.9036 92.2969 13.8906C92.2188 14.0339 92.1536 14.2161 92.1016 14.4375C92.0495 14.6589 91.9974 14.8932 91.9453 15.1406C91.9062 15.375 91.8672 15.6159 91.8281 15.8633C91.7891 16.0977 91.7435 16.3125 91.6914 16.5078V16.5664C91.6914 16.6185 91.6914 16.6641 91.6914 16.7031C91.7044 16.7422 91.7109 16.7878 91.7109 16.8398C91.7109 16.8919 91.6914 16.9505 91.6523 17.0156C91.6133 17.0807 91.5677 17.1784 91.5156 17.3086C91.4766 17.4388 91.4375 17.6146 91.3984 17.8359C91.3594 18.0573 91.3398 18.3568 91.3398 18.7344C91.3398 18.9167 91.3529 19.0599 91.3789 19.1641C91.4049 19.2552 91.4505 19.3268 91.5156 19.3789C91.5938 19.418 91.6979 19.444 91.8281 19.457C91.9714 19.457 92.1536 19.457 92.375 19.457C93.1953 19.457 93.8659 19.3854 94.3867 19.2422C94.9076 19.099 95.2786 18.9167 95.5 18.6953C95.5521 18.6432 95.6497 18.5456 95.793 18.4023C95.9492 18.2461 96.1055 18.168 96.2617 18.168C96.3659 18.168 96.4505 18.2005 96.5156 18.2656ZM108.664 30.8633C108.755 30.9544 108.801 31.0586 108.801 31.1758C108.801 31.3711 108.742 31.5469 108.625 31.7031C108.508 31.8464 108.358 31.9896 108.176 32.1328C108.007 32.263 107.818 32.3997 107.609 32.543C107.414 32.6862 107.232 32.8555 107.062 33.0508C106.841 33.3112 106.581 33.6107 106.281 33.9492C105.995 34.2747 105.767 34.6068 105.598 34.9453C105.572 35.0104 105.487 35.1341 105.344 35.3164C105.214 35.4987 105.051 35.694 104.855 35.9023C104.673 36.1107 104.465 36.293 104.23 36.4492C104.009 36.6055 103.794 36.6836 103.586 36.6836C103.443 36.6836 103.299 36.6576 103.156 36.6055C103.026 36.5664 102.902 36.5078 102.785 36.4297C102.668 36.3646 102.57 36.2865 102.492 36.1953C102.427 36.1172 102.395 36.0391 102.395 35.9609C102.395 35.8438 102.44 35.7266 102.531 35.6094C102.635 35.4922 102.688 35.3099 102.688 35.0625C102.688 34.9974 102.674 34.9518 102.648 34.9258C102.635 34.8997 102.616 34.8672 102.59 34.8281C102.577 34.7891 102.564 34.737 102.551 34.6719C102.538 34.6068 102.531 34.5026 102.531 34.3594C102.531 34.2161 102.551 34.0664 102.59 33.9102C102.642 33.7409 102.694 33.5716 102.746 33.4023C102.811 33.2201 102.863 33.0443 102.902 32.875C102.954 32.6927 102.98 32.5169 102.98 32.3477C102.98 32.3086 102.974 32.2695 102.961 32.2305C102.961 32.1784 102.961 32.1328 102.961 32.0938C102.961 32.0156 102.98 31.8984 103.02 31.7422C103.059 31.5859 103.104 31.4167 103.156 31.2344C103.208 31.0521 103.254 30.8568 103.293 30.6484C103.332 30.4271 103.352 30.2188 103.352 30.0234C103.352 29.776 103.326 29.5677 103.273 29.3984C103.13 29.4505 103.007 29.5286 102.902 29.6328C102.798 29.724 102.701 29.8346 102.609 29.9648C102.531 30.082 102.447 30.2122 102.355 30.3555C102.277 30.4857 102.193 30.6094 102.102 30.7266C102.049 30.7917 101.958 30.8763 101.828 30.9805C101.698 31.0846 101.561 31.1953 101.418 31.3125C101.288 31.4297 101.171 31.5469 101.066 31.6641C100.962 31.7682 100.91 31.8529 100.91 31.918C100.91 31.944 100.917 31.9766 100.93 32.0156C100.943 32.0547 100.949 32.0872 100.949 32.1133C100.949 32.1523 100.917 32.2109 100.852 32.2891C100.786 32.3672 100.715 32.4518 100.637 32.543C100.572 32.6211 100.507 32.6992 100.441 32.7773C100.376 32.8424 100.344 32.888 100.344 32.9141C100.331 33.0573 100.22 33.194 100.012 33.3242C99.8034 33.4414 99.6211 33.5911 99.4648 33.7734C99.3477 33.9036 99.25 34.0404 99.1719 34.1836C99.0938 34.3268 99.0221 34.457 98.957 34.5742C98.8919 34.6914 98.8268 34.7891 98.7617 34.8672C98.6966 34.9323 98.6185 34.9648 98.5273 34.9648C98.5013 34.9648 98.4557 34.9583 98.3906 34.9453C98.3385 34.9323 98.293 34.9258 98.2539 34.9258C98.1628 34.9258 98.1042 34.9844 98.0781 35.1016C98.0651 35.2188 98.0456 35.3099 98.0195 35.375C97.9154 35.5443 97.7917 35.6745 97.6484 35.7656C97.5182 35.8438 97.349 35.9609 97.1406 36.1172C97.0495 36.1823 96.9844 36.2539 96.9453 36.332C96.9193 36.4232 96.8802 36.5013 96.8281 36.5664C96.776 36.6315 96.6914 36.6836 96.5742 36.7227C96.4701 36.7747 96.3008 36.8008 96.0664 36.8008C95.9362 36.8008 95.8125 36.7878 95.6953 36.7617C95.5781 36.7357 95.5195 36.6966 95.5195 36.6445C95.5195 36.6185 95.526 36.5859 95.5391 36.5469C95.5521 36.5078 95.5586 36.4753 95.5586 36.4492C95.5586 36.4362 95.5326 36.4102 95.4805 36.3711C95.4284 36.332 95.3633 36.2734 95.2852 36.1953C95.2201 36.1302 95.1615 36.0391 95.1094 35.9219C95.0573 35.7917 95.0312 35.6354 95.0312 35.4531C95.0312 35.2448 95.0508 35.0299 95.0898 34.8086C95.1419 34.5742 95.194 34.3464 95.2461 34.125C95.3112 33.9036 95.3698 33.6953 95.4219 33.5C95.474 33.2917 95.513 33.0964 95.5391 32.9141C95.5911 32.4844 95.6172 32.0482 95.6172 31.6055C95.6172 31.1628 95.6888 30.7656 95.832 30.4141C95.8971 30.2839 95.9688 30.1081 96.0469 29.8867C96.125 29.6654 96.1966 29.4049 96.2617 29.1055C96.2747 29.0273 96.2943 28.9167 96.3203 28.7734C96.3464 28.6172 96.3789 28.4479 96.418 28.2656C96.457 28.0833 96.4961 27.901 96.5352 27.7188C96.5872 27.5234 96.6458 27.3542 96.7109 27.2109C96.737 27.1719 96.7826 27.1263 96.8477 27.0742C96.9258 27.0091 96.9779 26.957 97.0039 26.918C97.0299 26.8398 97.043 26.7552 97.043 26.6641C97.056 26.5599 97.0885 26.4557 97.1406 26.3516C97.1667 26.2995 97.2188 26.2474 97.2969 26.1953C97.375 26.1302 97.4206 26.0781 97.4336 26.0391C97.4987 25.9219 97.5443 25.7786 97.5703 25.6094C97.5964 25.4401 97.6484 25.2969 97.7266 25.1797C97.7786 25.1016 97.8698 25.0365 98 24.9844C98.1302 24.9193 98.2344 24.8346 98.3125 24.7305C98.3776 24.6393 98.4232 24.5417 98.4492 24.4375C98.4883 24.3333 98.5339 24.2422 98.5859 24.1641C98.7292 24.0078 98.8464 23.8711 98.9375 23.7539C99.0417 23.6237 99.1328 23.5065 99.2109 23.4023C99.3021 23.2982 99.3867 23.2005 99.4648 23.1094C99.543 23.0182 99.6406 22.9271 99.7578 22.8359C99.8359 22.7839 99.9271 22.6862 100.031 22.543C100.148 22.3997 100.253 22.3021 100.344 22.25C100.448 22.2109 100.539 22.1784 100.617 22.1523C100.708 22.1263 100.812 22.0677 100.93 21.9766C100.956 21.9505 100.982 21.8984 101.008 21.8203C101.034 21.7292 101.06 21.6771 101.086 21.6641C101.177 21.625 101.262 21.5924 101.34 21.5664C101.431 21.5404 101.535 21.4753 101.652 21.3711C101.796 21.2409 101.906 21.1107 101.984 20.9805C102.062 20.8503 102.154 20.7396 102.258 20.6484C102.362 20.5703 102.479 20.5182 102.609 20.4922C102.74 20.4661 102.857 20.4206 102.961 20.3555C103.156 20.2513 103.352 20.1146 103.547 19.9453C103.755 19.763 103.97 19.5872 104.191 19.418C104.413 19.2357 104.641 19.0859 104.875 18.9688C105.122 18.8385 105.376 18.7734 105.637 18.7734C105.806 18.7734 105.975 18.7604 106.145 18.7344C106.327 18.6953 106.496 18.6758 106.652 18.6758C106.796 18.6758 106.926 18.7018 107.043 18.7539C107.16 18.806 107.219 18.9167 107.219 19.0859C107.219 19.5807 107.16 20.1341 107.043 20.7461C106.926 21.3581 106.796 22.0156 106.652 22.7188C106.522 23.4219 106.398 24.1641 106.281 24.9453C106.177 25.7266 106.125 26.5339 106.125 27.3672C106.125 27.3932 106.132 27.4323 106.145 27.4844C106.171 27.5365 106.184 27.6146 106.184 27.7188C106.184 27.7969 106.164 27.8945 106.125 28.0117C106.099 28.1159 106.066 28.2266 106.027 28.3438C105.988 28.4479 105.949 28.5521 105.91 28.6562C105.884 28.7604 105.871 28.8516 105.871 28.9297C105.871 29.0599 105.871 29.1901 105.871 29.3203C105.884 29.4505 105.891 29.5677 105.891 29.6719C105.891 29.8932 105.865 30.1406 105.812 30.4141C105.76 30.6875 105.695 30.974 105.617 31.2734C105.552 31.5599 105.493 31.8464 105.441 32.1328C105.389 32.4193 105.363 32.6862 105.363 32.9336C105.363 33.0638 105.37 33.1875 105.383 33.3047C105.396 33.4089 105.422 33.513 105.461 33.6172C105.63 33.5391 105.767 33.4414 105.871 33.3242C105.988 33.207 106.092 33.0768 106.184 32.9336C106.288 32.7773 106.392 32.6146 106.496 32.4453C106.6 32.263 106.737 32.0742 106.906 31.8789C106.971 31.8008 107.062 31.6966 107.18 31.5664C107.297 31.4362 107.421 31.3125 107.551 31.1953C107.681 31.0781 107.818 30.974 107.961 30.8828C108.104 30.7917 108.241 30.7461 108.371 30.7461C108.462 30.7461 108.56 30.7852 108.664 30.8633ZM104.133 20.8047C104.094 20.8047 104.055 20.8047 104.016 20.8047C103.977 20.7917 103.944 20.7852 103.918 20.7852C103.723 20.7852 103.573 20.8438 103.469 20.9609C103.378 21.0651 103.299 21.1172 103.234 21.1172C103.208 21.1172 103.176 21.1172 103.137 21.1172C103.098 21.1042 103.059 21.0977 103.02 21.0977C102.954 21.0977 102.922 21.1367 102.922 21.2148C102.922 21.2799 102.889 21.332 102.824 21.3711C102.772 21.4362 102.701 21.4688 102.609 21.4688C102.518 21.4557 102.447 21.4753 102.395 21.5273C102.329 21.5924 102.264 21.6966 102.199 21.8398C102.147 21.9701 102.062 22.1068 101.945 22.25C101.841 22.3672 101.711 22.4714 101.555 22.5625C101.411 22.6536 101.301 22.7448 101.223 22.8359C101.197 22.888 101.171 22.9661 101.145 23.0703C101.132 23.1615 101.112 23.2331 101.086 23.2852C100.982 23.4674 100.852 23.6888 100.695 23.9492C100.552 24.1966 100.396 24.457 100.227 24.7305C100.057 25.0039 99.888 25.2708 99.7188 25.5312C99.5625 25.7786 99.4323 26 99.3281 26.1953C99.224 26.3776 99.1523 26.5924 99.1133 26.8398C99.0742 27.0872 99.0417 27.3477 99.0156 27.6211C99.0026 27.8815 98.9896 28.1354 98.9766 28.3828C98.9635 28.6172 98.9375 28.8125 98.8984 28.9688C98.651 29.8281 98.4167 30.694 98.1953 31.5664C97.987 32.4258 97.8828 33.2591 97.8828 34.0664C98.1562 34.0273 98.3646 33.9232 98.5078 33.7539C98.6641 33.5716 98.7878 33.3698 98.8789 33.1484C98.9701 32.9271 99.0547 32.7122 99.1328 32.5039C99.2109 32.2956 99.3216 32.1393 99.4648 32.0352C99.569 31.9701 99.6732 31.8789 99.7773 31.7617C99.8945 31.6445 99.9922 31.5339 100.07 31.4297C100.109 31.3776 100.129 31.3125 100.129 31.2344C100.129 31.1432 100.155 31.0651 100.207 31C100.285 30.9089 100.376 30.8112 100.48 30.707C100.598 30.6029 100.715 30.4987 100.832 30.3945C100.949 30.2904 101.053 30.1927 101.145 30.1016C101.249 29.9974 101.327 29.9128 101.379 29.8477C101.431 29.7826 101.457 29.6849 101.457 29.5547C101.47 29.4115 101.49 29.3073 101.516 29.2422C101.646 28.9948 101.789 28.7734 101.945 28.5781C102.102 28.3698 102.251 28.1549 102.395 27.9336C102.629 27.569 102.824 27.2109 102.98 26.8594C103.15 26.5078 103.293 26.1497 103.41 25.7852C103.527 25.4206 103.632 25.0495 103.723 24.6719C103.814 24.2812 103.905 23.8646 103.996 23.4219C104.048 23.1615 104.107 22.8815 104.172 22.582C104.25 22.2826 104.289 21.9766 104.289 21.6641C104.289 21.3385 104.237 21.0521 104.133 20.8047ZM119.191 20.4922C119.1 20.6094 118.977 20.6875 118.82 20.7266C118.677 20.7526 118.521 20.7721 118.352 20.7852C118.182 20.7982 118.007 20.8112 117.824 20.8242C117.642 20.8372 117.473 20.8763 117.316 20.9414C117.29 20.9544 117.264 20.987 117.238 21.0391C117.225 21.0781 117.186 21.0977 117.121 21.0977C117.095 21.0977 117.062 21.0977 117.023 21.0977C116.997 21.0846 116.971 21.0781 116.945 21.0781C116.841 21.0781 116.737 21.1432 116.633 21.2734C116.542 21.4036 116.431 21.4948 116.301 21.5469C116.066 21.651 115.839 21.7031 115.617 21.7031C115.396 21.7031 115.233 21.7552 115.129 21.8594C114.921 22.0417 114.771 22.2305 114.68 22.4258C114.602 22.6211 114.562 22.8229 114.562 23.0312C114.562 23.3698 114.641 23.7214 114.797 24.0859C114.966 24.4375 115.122 24.8216 115.266 25.2383V25.2773C115.266 25.3034 115.259 25.3359 115.246 25.375C115.246 25.4141 115.246 25.4466 115.246 25.4727C115.246 25.5117 115.253 25.5312 115.266 25.5312C115.292 25.5573 115.344 25.6549 115.422 25.8242C115.5 25.9935 115.585 26.1693 115.676 26.3516C115.767 26.5729 115.871 26.8138 115.988 27.0742C116.014 27.4648 116.118 27.8555 116.301 28.2461C116.483 28.6367 116.678 29.0273 116.887 29.418C117.108 29.7956 117.303 30.1732 117.473 30.5508C117.655 30.9284 117.746 31.2995 117.746 31.6641C117.733 31.8854 117.648 32.1263 117.492 32.3867C117.349 32.6341 117.186 32.8685 117.004 33.0898C116.822 33.3112 116.652 33.5 116.496 33.6562C116.353 33.7995 116.281 33.8711 116.281 33.8711C116.281 33.9102 116.281 33.9492 116.281 33.9883C116.294 34.0273 116.301 34.0599 116.301 34.0859C116.275 34.2292 116.184 34.3984 116.027 34.5938C115.871 34.7891 115.689 34.9844 115.48 35.1797C115.285 35.375 115.083 35.5508 114.875 35.707C114.68 35.8503 114.517 35.9349 114.387 35.9609C114.348 35.974 114.27 36.0065 114.152 36.0586C114.048 36.1237 113.938 36.1888 113.82 36.2539C113.703 36.332 113.586 36.4036 113.469 36.4688C113.365 36.5339 113.286 36.5729 113.234 36.5859C113.117 36.612 112.85 36.6315 112.434 36.6445C112.017 36.6706 111.594 36.6836 111.164 36.6836C110.786 36.6836 110.448 36.6706 110.148 36.6445C109.862 36.6185 109.719 36.5534 109.719 36.4492V36.4297C109.576 36.4297 109.452 36.4362 109.348 36.4492C109.257 36.4753 109.146 36.4883 109.016 36.4883C108.924 36.4883 108.82 36.4818 108.703 36.4688C108.599 36.4557 108.495 36.4297 108.391 36.3906C108.299 36.3516 108.221 36.2995 108.156 36.2344C108.078 36.1823 108.039 36.1172 108.039 36.0391C108.039 35.8828 108.117 35.7461 108.273 35.6289C108.43 35.5117 108.579 35.362 108.723 35.1797C108.866 34.9844 109.029 34.7565 109.211 34.4961C109.393 34.2227 109.576 33.9688 109.758 33.7344C109.94 33.487 110.116 33.2852 110.285 33.1289C110.467 32.9596 110.624 32.875 110.754 32.875C110.897 32.875 110.975 32.9401 110.988 33.0703C111.014 33.2005 111.027 33.3503 111.027 33.5195C111.027 33.6758 111.04 33.819 111.066 33.9492C111.105 34.0794 111.21 34.1445 111.379 34.1445C111.522 34.1445 111.626 34.1185 111.691 34.0664C111.757 34.0013 111.861 33.9688 112.004 33.9688C112.121 33.9688 112.206 33.9883 112.258 34.0273C112.323 34.0664 112.375 34.112 112.414 34.1641C112.453 34.2161 112.505 34.2617 112.57 34.3008C112.635 34.3398 112.74 34.3594 112.883 34.3594C113.117 34.3594 113.378 34.3138 113.664 34.2227C113.964 34.1185 114.302 34.0664 114.68 34.0664C114.875 34.0664 115.07 34.0859 115.266 34.125C115.253 34.0859 115.246 34.0273 115.246 33.9492C115.246 33.8581 115.253 33.7734 115.266 33.6953C115.292 33.6172 115.305 33.5326 115.305 33.4414C115.305 33.2461 115.24 33.1224 115.109 33.0703C114.992 33.0052 114.895 32.8945 114.816 32.7383C114.738 32.4779 114.693 32.2174 114.68 31.957C114.667 31.6836 114.621 31.4297 114.543 31.1953C114.517 31.1693 114.484 31.1628 114.445 31.1758C114.419 31.1758 114.4 31.1367 114.387 31.0586C114.387 30.9935 114.387 30.9089 114.387 30.8047C114.4 30.7005 114.406 30.5898 114.406 30.4727C114.406 30.3294 114.4 30.1862 114.387 30.043C114.374 29.8867 114.335 29.763 114.27 29.6719C114.243 29.6198 114.159 29.5417 114.016 29.4375C113.872 29.3333 113.768 29.2096 113.703 29.0664C113.599 28.8841 113.527 28.6497 113.488 28.3633C113.462 28.0768 113.384 27.849 113.254 27.6797C113.241 27.6536 113.189 27.6276 113.098 27.6016C113.02 27.5755 112.974 27.5495 112.961 27.5234C112.883 27.2891 112.837 26.9635 112.824 26.5469C112.811 26.1172 112.714 25.6289 112.531 25.082C112.518 25.056 112.492 25.043 112.453 25.043C112.414 25.043 112.395 25.0039 112.395 24.9258C112.382 24.7435 112.368 24.5807 112.355 24.4375C112.355 24.2812 112.355 24.1315 112.355 23.9883C112.355 23.2852 112.577 22.6797 113.02 22.1719C113.475 21.6641 114.029 21.2018 114.68 20.7852C114.784 20.7201 114.882 20.694 114.973 20.707C115.077 20.7201 115.174 20.7005 115.266 20.6484C115.344 20.5964 115.402 20.5052 115.441 20.375C115.48 20.2448 115.578 20.1797 115.734 20.1797C115.76 20.1797 115.786 20.1862 115.812 20.1992C115.852 20.1992 115.884 20.1992 115.91 20.1992C115.988 20.1992 116.053 20.1536 116.105 20.0625C116.171 19.9583 116.236 19.8932 116.301 19.8672C116.496 19.763 116.717 19.6979 116.965 19.6719C117.225 19.6328 117.486 19.5417 117.746 19.3984C117.824 19.3594 117.883 19.3008 117.922 19.2227C117.974 19.1315 118.039 19.0859 118.117 19.0859C118.182 19.0859 118.247 19.0924 118.312 19.1055C118.391 19.1185 118.462 19.125 118.527 19.125C118.605 19.125 118.677 19.099 118.742 19.0469C118.807 18.9818 118.879 18.9492 118.957 18.9492C119.1 18.9492 119.224 19.0208 119.328 19.1641C119.445 19.3073 119.504 19.4831 119.504 19.6914C119.504 19.9648 119.4 20.2318 119.191 20.4922ZM145.598 21.0195C145.598 21.3581 145.507 21.6836 145.324 21.9961C145.142 22.3086 144.921 22.6016 144.66 22.875C144.4 23.1484 144.126 23.4023 143.84 23.6367C143.553 23.8581 143.312 24.0599 143.117 24.2422C143.052 24.2812 143 24.3008 142.961 24.3008C142.922 24.2878 142.876 24.3138 142.824 24.3789C142.798 24.4049 142.759 24.4505 142.707 24.5156C142.668 24.5807 142.616 24.6523 142.551 24.7305C142.499 24.8086 142.44 24.8867 142.375 24.9648C142.323 25.0299 142.277 25.0755 142.238 25.1016C142.16 25.1667 142.069 25.1992 141.965 25.1992C141.861 25.1992 141.757 25.2188 141.652 25.2578C141.587 25.2839 141.464 25.362 141.281 25.4922C141.099 25.6224 140.865 25.7786 140.578 25.9609C140.305 26.1302 139.986 26.319 139.621 26.5273C139.27 26.7357 138.879 26.9375 138.449 27.1328C138.371 27.1719 138.293 27.224 138.215 27.2891C138.137 27.3542 138.072 27.4062 138.02 27.4453C137.928 27.4844 137.831 27.5039 137.727 27.5039C137.635 27.5039 137.531 27.5299 137.414 27.582C137.375 27.6081 137.303 27.6602 137.199 27.7383C137.108 27.8034 137.036 27.849 136.984 27.875C136.841 27.9271 136.698 27.9661 136.555 27.9922C136.424 28.0052 136.281 28.0312 136.125 28.0703C135.969 28.0964 135.793 28.1354 135.598 28.1875C135.415 28.2396 135.201 28.3307 134.953 28.4609C134.914 28.474 134.875 28.513 134.836 28.5781C134.81 28.6302 134.706 28.6562 134.523 28.6562C134.38 28.6562 134.276 28.6888 134.211 28.7539C134.159 28.806 134.133 28.9297 134.133 29.125C134.133 29.2031 134.133 29.2943 134.133 29.3984C134.146 29.5026 134.152 29.6198 134.152 29.75C134.152 29.9193 134.133 30.1081 134.094 30.3164C134.068 30.5117 134.029 30.7461 133.977 31.0195C133.938 31.2799 133.885 31.5859 133.82 31.9375C133.755 32.2891 133.697 32.6862 133.645 33.1289C133.553 33.3112 133.495 33.5 133.469 33.6953C133.443 33.8776 133.43 34.0794 133.43 34.3008C133.43 34.3659 133.436 34.4505 133.449 34.5547C133.462 34.6589 133.482 34.763 133.508 34.8672C133.534 34.9583 133.573 35.0365 133.625 35.1016C133.69 35.1667 133.768 35.1992 133.859 35.1992C133.964 35.1992 134.1 35.1732 134.27 35.1211C134.439 35.056 134.615 35.0234 134.797 35.0234C135.018 35.0234 135.174 35.056 135.266 35.1211C135.37 35.1862 135.507 35.2513 135.676 35.3164C135.533 35.5898 135.279 35.7786 134.914 35.8828C134.562 35.987 134.165 36.0586 133.723 36.0977C133.28 36.1497 132.831 36.1953 132.375 36.2344C131.919 36.2734 131.516 36.3581 131.164 36.4883C131.034 36.5143 130.923 36.5664 130.832 36.6445C130.741 36.7357 130.637 36.7812 130.52 36.7812C130.441 36.7812 130.35 36.7747 130.246 36.7617C130.155 36.7617 130.057 36.7617 129.953 36.7617C129.628 36.7617 129.354 36.8138 129.133 36.918C128.924 37.0221 128.755 37.0742 128.625 37.0742C128.586 37.0742 128.534 37.0417 128.469 36.9766C128.404 36.9245 128.339 36.8464 128.273 36.7422C128.221 36.651 128.176 36.5534 128.137 36.4492C128.098 36.3451 128.078 36.2409 128.078 36.1367C128.078 36.0716 128.156 35.9935 128.312 35.9023C128.482 35.7982 128.736 35.7461 129.074 35.7461C129.178 35.7461 129.289 35.7591 129.406 35.7852C129.523 35.7982 129.634 35.8047 129.738 35.8047C129.986 35.8047 130.168 35.7266 130.285 35.5703C130.402 35.401 130.48 35.1927 130.52 34.9453C130.572 34.6849 130.604 34.4115 130.617 34.125C130.643 33.8255 130.676 33.5391 130.715 33.2656C130.767 32.9661 130.845 32.6406 130.949 32.2891C131.053 31.9375 131.125 31.6315 131.164 31.3711C131.203 31.0586 131.216 30.7917 131.203 30.5703C131.203 30.3359 131.236 30.069 131.301 29.7695C131.314 29.7174 131.34 29.6523 131.379 29.5742C131.431 29.4961 131.457 29.4635 131.457 29.4766C131.457 29.4375 131.438 29.3854 131.398 29.3203C131.372 29.2552 131.34 29.1836 131.301 29.1055C131.275 29.0273 131.242 28.9557 131.203 28.8906C131.177 28.8255 131.164 28.7799 131.164 28.7539C131.19 28.6107 131.223 28.513 131.262 28.4609C131.314 28.4089 131.379 28.3112 131.457 28.168C131.548 27.9987 131.633 27.7578 131.711 27.4453C131.789 27.1198 131.861 26.7552 131.926 26.3516C131.991 25.9479 132.056 25.5247 132.121 25.082C132.186 24.6393 132.258 24.2096 132.336 23.793C132.453 23.207 132.551 22.5495 132.629 21.8203C132.707 21.0911 132.798 20.3359 132.902 19.5547C132.915 19.5156 132.948 19.3659 133 19.1055C133.052 18.832 133.111 18.5195 133.176 18.168C133.241 17.8164 133.299 17.4583 133.352 17.0938C133.404 16.7292 133.43 16.4232 133.43 16.1758C133.43 15.9023 133.365 15.7396 133.234 15.6875C133.117 15.6354 132.909 15.6094 132.609 15.6094C132.375 15.6094 132.134 15.6289 131.887 15.668C131.639 15.694 131.444 15.7266 131.301 15.7656C131.118 15.8177 130.949 15.9089 130.793 16.0391C130.637 16.1562 130.487 16.2799 130.344 16.4102C130.201 16.5273 130.064 16.638 129.934 16.7422C129.816 16.8333 129.706 16.8789 129.602 16.8789C129.497 16.8789 129.419 16.8398 129.367 16.7617C129.315 16.6836 129.289 16.6055 129.289 16.5273C129.289 16.4232 129.328 16.319 129.406 16.2148C129.497 16.0977 129.602 15.9805 129.719 15.8633C129.849 15.7461 129.979 15.6354 130.109 15.5312C130.24 15.4141 130.344 15.2969 130.422 15.1797C130.5 15.0755 130.559 14.9844 130.598 14.9062C130.637 14.8281 130.676 14.75 130.715 14.6719C130.767 14.5938 130.826 14.5156 130.891 14.4375C130.956 14.3594 131.047 14.2682 131.164 14.1641C131.229 14.112 131.314 14.0794 131.418 14.0664C131.522 14.0404 131.626 13.9753 131.73 13.8711C131.809 13.7799 131.861 13.6823 131.887 13.5781C131.913 13.4609 131.945 13.3568 131.984 13.2656C132.023 13.1615 132.089 13.0768 132.18 13.0117C132.271 12.9336 132.427 12.8945 132.648 12.8945C132.883 12.8945 133.143 12.9206 133.43 12.9727C133.729 13.0117 134.009 13.0312 134.27 13.0312C134.66 13.0312 134.979 12.888 135.227 12.6016C135.487 12.3021 135.708 11.9831 135.891 11.6445C136.073 11.293 136.236 10.974 136.379 10.6875C136.522 10.388 136.685 10.2383 136.867 10.2383C136.971 10.2383 137.056 10.2904 137.121 10.3945C137.186 10.4857 137.219 10.5898 137.219 10.707C137.219 10.8242 137.18 10.9805 137.102 11.1758C137.023 11.3581 136.939 11.5534 136.848 11.7617C136.77 11.9701 136.691 12.1849 136.613 12.4062C136.535 12.6146 136.496 12.8099 136.496 12.9922C136.496 13.1224 136.542 13.2266 136.633 13.3047C136.724 13.3698 136.848 13.4284 137.004 13.4805C137.16 13.5326 137.336 13.5781 137.531 13.6172C137.74 13.6432 137.948 13.6823 138.156 13.7344C138.234 13.7604 138.404 13.8255 138.664 13.9297C138.924 14.0339 139.204 14.1576 139.504 14.3008C139.803 14.431 140.09 14.5677 140.363 14.7109C140.637 14.8542 140.826 14.9648 140.93 15.043C140.982 15.082 141.034 15.1341 141.086 15.1992C141.138 15.2643 141.184 15.3099 141.223 15.3359C141.405 15.4661 141.574 15.5573 141.73 15.6094C141.9 15.6484 142.023 15.7005 142.102 15.7656C142.258 15.9089 142.395 16.0977 142.512 16.332C142.629 16.5664 142.779 16.7682 142.961 16.9375C143.221 17.1979 143.501 17.4258 143.801 17.6211C144.1 17.8034 144.309 17.9661 144.426 18.1094C144.478 18.1745 144.51 18.2461 144.523 18.3242C144.536 18.4023 144.556 18.474 144.582 18.5391C144.634 18.6953 144.719 18.8971 144.836 19.1445C144.953 19.3919 145.064 19.6458 145.168 19.9062C145.285 20.1536 145.383 20.3815 145.461 20.5898C145.552 20.7982 145.598 20.9414 145.598 21.0195ZM142.824 21.1758C142.785 21.0195 142.681 20.8177 142.512 20.5703C142.355 20.3099 142.18 20.0495 141.984 19.7891C141.789 19.5286 141.594 19.2812 141.398 19.0469C141.203 18.8125 141.047 18.6432 140.93 18.5391C140.839 18.4609 140.728 18.4023 140.598 18.3633C140.467 18.3242 140.383 18.2852 140.344 18.2461C140.083 18.0117 139.79 17.8229 139.465 17.6797C139.139 17.5365 138.898 17.3867 138.742 17.2305C138.495 16.9961 138.215 16.8333 137.902 16.7422C137.59 16.638 137.284 16.5599 136.984 16.5078C136.906 16.4688 136.809 16.4036 136.691 16.3125C136.574 16.2214 136.483 16.1758 136.418 16.1758C136.275 16.1758 136.158 16.2604 136.066 16.4297C135.975 16.5859 135.904 16.7617 135.852 16.957C135.799 17.1523 135.76 17.3411 135.734 17.5234C135.708 17.6927 135.689 17.7904 135.676 17.8164C135.663 17.8424 135.656 17.8685 135.656 17.8945C135.656 18.0247 135.689 18.1159 135.754 18.168C135.819 18.207 135.852 18.3047 135.852 18.4609C135.852 18.6693 135.812 18.8971 135.734 19.1445C135.656 19.3789 135.591 19.6198 135.539 19.8672C135.448 20.349 135.383 20.7786 135.344 21.1562C135.305 21.5208 135.272 21.8594 135.246 22.1719C135.233 22.4714 135.214 22.7513 135.188 23.0117C135.174 23.2721 135.142 23.5326 135.09 23.793C135.064 23.9622 135.012 24.112 134.934 24.2422C134.868 24.3724 134.823 24.5156 134.797 24.6719C134.745 25.1016 134.725 25.5378 134.738 25.9805C134.751 26.4102 134.725 26.8464 134.66 27.2891C134.725 27.3021 134.823 27.3086 134.953 27.3086C135.161 27.3086 135.363 27.2891 135.559 27.25C135.754 27.1979 135.923 27.1458 136.066 27.0938C136.223 27.0286 136.34 26.9766 136.418 26.9375C136.509 26.8854 136.555 26.8594 136.555 26.8594C136.867 26.7552 137.186 26.6706 137.512 26.6055C137.85 26.5273 138.163 26.4167 138.449 26.2734C138.632 26.1823 138.814 26.0456 138.996 25.8633C139.191 25.681 139.393 25.5247 139.602 25.3945C139.719 25.3294 139.842 25.2839 139.973 25.2578C140.103 25.2318 140.227 25.1797 140.344 25.1016C140.422 25.0625 140.474 25.0169 140.5 24.9648C140.526 24.9128 140.572 24.8607 140.637 24.8086C140.702 24.7565 140.773 24.737 140.852 24.75C140.943 24.75 141.021 24.724 141.086 24.6719C141.138 24.6198 141.197 24.5482 141.262 24.457C141.327 24.3659 141.392 24.2682 141.457 24.1641C141.522 24.0469 141.581 23.9427 141.633 23.8516C141.698 23.7604 141.75 23.6888 141.789 23.6367C142.102 23.2591 142.362 22.9141 142.57 22.6016C142.779 22.276 142.883 21.944 142.883 21.6055C142.883 21.4622 142.863 21.319 142.824 21.1758ZM158.508 30.8633C158.599 30.9544 158.645 31.0586 158.645 31.1758C158.645 31.3711 158.586 31.5469 158.469 31.7031C158.352 31.8464 158.202 31.9896 158.02 32.1328C157.85 32.263 157.661 32.3997 157.453 32.543C157.258 32.6862 157.076 32.8555 156.906 33.0508C156.685 33.3112 156.424 33.6107 156.125 33.9492C155.839 34.2747 155.611 34.6068 155.441 34.9453C155.415 35.0104 155.331 35.1341 155.188 35.3164C155.057 35.4987 154.895 35.694 154.699 35.9023C154.517 36.1107 154.309 36.293 154.074 36.4492C153.853 36.6055 153.638 36.6836 153.43 36.6836C153.286 36.6836 153.143 36.6576 153 36.6055C152.87 36.5664 152.746 36.5078 152.629 36.4297C152.512 36.3646 152.414 36.2865 152.336 36.1953C152.271 36.1172 152.238 36.0391 152.238 35.9609C152.238 35.8438 152.284 35.7266 152.375 35.6094C152.479 35.4922 152.531 35.3099 152.531 35.0625C152.531 34.9974 152.518 34.9518 152.492 34.9258C152.479 34.8997 152.46 34.8672 152.434 34.8281C152.421 34.7891 152.408 34.737 152.395 34.6719C152.382 34.6068 152.375 34.5026 152.375 34.3594C152.375 34.2161 152.395 34.0664 152.434 33.9102C152.486 33.7409 152.538 33.5716 152.59 33.4023C152.655 33.2201 152.707 33.0443 152.746 32.875C152.798 32.6927 152.824 32.5169 152.824 32.3477C152.824 32.3086 152.818 32.2695 152.805 32.2305C152.805 32.1784 152.805 32.1328 152.805 32.0938C152.805 32.0156 152.824 31.8984 152.863 31.7422C152.902 31.5859 152.948 31.4167 153 31.2344C153.052 31.0521 153.098 30.8568 153.137 30.6484C153.176 30.4271 153.195 30.2188 153.195 30.0234C153.195 29.776 153.169 29.5677 153.117 29.3984C152.974 29.4505 152.85 29.5286 152.746 29.6328C152.642 29.724 152.544 29.8346 152.453 29.9648C152.375 30.082 152.29 30.2122 152.199 30.3555C152.121 30.4857 152.036 30.6094 151.945 30.7266C151.893 30.7917 151.802 30.8763 151.672 30.9805C151.542 31.0846 151.405 31.1953 151.262 31.3125C151.132 31.4297 151.014 31.5469 150.91 31.6641C150.806 31.7682 150.754 31.8529 150.754 31.918C150.754 31.944 150.76 31.9766 150.773 32.0156C150.786 32.0547 150.793 32.0872 150.793 32.1133C150.793 32.1523 150.76 32.2109 150.695 32.2891C150.63 32.3672 150.559 32.4518 150.48 32.543C150.415 32.6211 150.35 32.6992 150.285 32.7773C150.22 32.8424 150.188 32.888 150.188 32.9141C150.174 33.0573 150.064 33.194 149.855 33.3242C149.647 33.4414 149.465 33.5911 149.309 33.7734C149.191 33.9036 149.094 34.0404 149.016 34.1836C148.938 34.3268 148.866 34.457 148.801 34.5742C148.736 34.6914 148.671 34.7891 148.605 34.8672C148.54 34.9323 148.462 34.9648 148.371 34.9648C148.345 34.9648 148.299 34.9583 148.234 34.9453C148.182 34.9323 148.137 34.9258 148.098 34.9258C148.007 34.9258 147.948 34.9844 147.922 35.1016C147.909 35.2188 147.889 35.3099 147.863 35.375C147.759 35.5443 147.635 35.6745 147.492 35.7656C147.362 35.8438 147.193 35.9609 146.984 36.1172C146.893 36.1823 146.828 36.2539 146.789 36.332C146.763 36.4232 146.724 36.5013 146.672 36.5664C146.62 36.6315 146.535 36.6836 146.418 36.7227C146.314 36.7747 146.145 36.8008 145.91 36.8008C145.78 36.8008 145.656 36.7878 145.539 36.7617C145.422 36.7357 145.363 36.6966 145.363 36.6445C145.363 36.6185 145.37 36.5859 145.383 36.5469C145.396 36.5078 145.402 36.4753 145.402 36.4492C145.402 36.4362 145.376 36.4102 145.324 36.3711C145.272 36.332 145.207 36.2734 145.129 36.1953C145.064 36.1302 145.005 36.0391 144.953 35.9219C144.901 35.7917 144.875 35.6354 144.875 35.4531C144.875 35.2448 144.895 35.0299 144.934 34.8086C144.986 34.5742 145.038 34.3464 145.09 34.125C145.155 33.9036 145.214 33.6953 145.266 33.5C145.318 33.2917 145.357 33.0964 145.383 32.9141C145.435 32.4844 145.461 32.0482 145.461 31.6055C145.461 31.1628 145.533 30.7656 145.676 30.4141C145.741 30.2839 145.812 30.1081 145.891 29.8867C145.969 29.6654 146.04 29.4049 146.105 29.1055C146.118 29.0273 146.138 28.9167 146.164 28.7734C146.19 28.6172 146.223 28.4479 146.262 28.2656C146.301 28.0833 146.34 27.901 146.379 27.7188C146.431 27.5234 146.49 27.3542 146.555 27.2109C146.581 27.1719 146.626 27.1263 146.691 27.0742C146.77 27.0091 146.822 26.957 146.848 26.918C146.874 26.8398 146.887 26.7552 146.887 26.6641C146.9 26.5599 146.932 26.4557 146.984 26.3516C147.01 26.2995 147.062 26.2474 147.141 26.1953C147.219 26.1302 147.264 26.0781 147.277 26.0391C147.342 25.9219 147.388 25.7786 147.414 25.6094C147.44 25.4401 147.492 25.2969 147.57 25.1797C147.622 25.1016 147.714 25.0365 147.844 24.9844C147.974 24.9193 148.078 24.8346 148.156 24.7305C148.221 24.6393 148.267 24.5417 148.293 24.4375C148.332 24.3333 148.378 24.2422 148.43 24.1641C148.573 24.0078 148.69 23.8711 148.781 23.7539C148.885 23.6237 148.977 23.5065 149.055 23.4023C149.146 23.2982 149.23 23.2005 149.309 23.1094C149.387 23.0182 149.484 22.9271 149.602 22.8359C149.68 22.7839 149.771 22.6862 149.875 22.543C149.992 22.3997 150.096 22.3021 150.188 22.25C150.292 22.2109 150.383 22.1784 150.461 22.1523C150.552 22.1263 150.656 22.0677 150.773 21.9766C150.799 21.9505 150.826 21.8984 150.852 21.8203C150.878 21.7292 150.904 21.6771 150.93 21.6641C151.021 21.625 151.105 21.5924 151.184 21.5664C151.275 21.5404 151.379 21.4753 151.496 21.3711C151.639 21.2409 151.75 21.1107 151.828 20.9805C151.906 20.8503 151.997 20.7396 152.102 20.6484C152.206 20.5703 152.323 20.5182 152.453 20.4922C152.583 20.4661 152.701 20.4206 152.805 20.3555C153 20.2513 153.195 20.1146 153.391 19.9453C153.599 19.763 153.814 19.5872 154.035 19.418C154.257 19.2357 154.484 19.0859 154.719 18.9688C154.966 18.8385 155.22 18.7734 155.48 18.7734C155.65 18.7734 155.819 18.7604 155.988 18.7344C156.171 18.6953 156.34 18.6758 156.496 18.6758C156.639 18.6758 156.77 18.7018 156.887 18.7539C157.004 18.806 157.062 18.9167 157.062 19.0859C157.062 19.5807 157.004 20.1341 156.887 20.7461C156.77 21.3581 156.639 22.0156 156.496 22.7188C156.366 23.4219 156.242 24.1641 156.125 24.9453C156.021 25.7266 155.969 26.5339 155.969 27.3672C155.969 27.3932 155.975 27.4323 155.988 27.4844C156.014 27.5365 156.027 27.6146 156.027 27.7188C156.027 27.7969 156.008 27.8945 155.969 28.0117C155.943 28.1159 155.91 28.2266 155.871 28.3438C155.832 28.4479 155.793 28.5521 155.754 28.6562C155.728 28.7604 155.715 28.8516 155.715 28.9297C155.715 29.0599 155.715 29.1901 155.715 29.3203C155.728 29.4505 155.734 29.5677 155.734 29.6719C155.734 29.8932 155.708 30.1406 155.656 30.4141C155.604 30.6875 155.539 30.974 155.461 31.2734C155.396 31.5599 155.337 31.8464 155.285 32.1328C155.233 32.4193 155.207 32.6862 155.207 32.9336C155.207 33.0638 155.214 33.1875 155.227 33.3047C155.24 33.4089 155.266 33.513 155.305 33.6172C155.474 33.5391 155.611 33.4414 155.715 33.3242C155.832 33.207 155.936 33.0768 156.027 32.9336C156.132 32.7773 156.236 32.6146 156.34 32.4453C156.444 32.263 156.581 32.0742 156.75 31.8789C156.815 31.8008 156.906 31.6966 157.023 31.5664C157.141 31.4362 157.264 31.3125 157.395 31.1953C157.525 31.0781 157.661 30.974 157.805 30.8828C157.948 30.7917 158.085 30.7461 158.215 30.7461C158.306 30.7461 158.404 30.7852 158.508 30.8633ZM153.977 20.8047C153.938 20.8047 153.898 20.8047 153.859 20.8047C153.82 20.7917 153.788 20.7852 153.762 20.7852C153.566 20.7852 153.417 20.8438 153.312 20.9609C153.221 21.0651 153.143 21.1172 153.078 21.1172C153.052 21.1172 153.02 21.1172 152.98 21.1172C152.941 21.1042 152.902 21.0977 152.863 21.0977C152.798 21.0977 152.766 21.1367 152.766 21.2148C152.766 21.2799 152.733 21.332 152.668 21.3711C152.616 21.4362 152.544 21.4688 152.453 21.4688C152.362 21.4557 152.29 21.4753 152.238 21.5273C152.173 21.5924 152.108 21.6966 152.043 21.8398C151.991 21.9701 151.906 22.1068 151.789 22.25C151.685 22.3672 151.555 22.4714 151.398 22.5625C151.255 22.6536 151.145 22.7448 151.066 22.8359C151.04 22.888 151.014 22.9661 150.988 23.0703C150.975 23.1615 150.956 23.2331 150.93 23.2852C150.826 23.4674 150.695 23.6888 150.539 23.9492C150.396 24.1966 150.24 24.457 150.07 24.7305C149.901 25.0039 149.732 25.2708 149.562 25.5312C149.406 25.7786 149.276 26 149.172 26.1953C149.068 26.3776 148.996 26.5924 148.957 26.8398C148.918 27.0872 148.885 27.3477 148.859 27.6211C148.846 27.8815 148.833 28.1354 148.82 28.3828C148.807 28.6172 148.781 28.8125 148.742 28.9688C148.495 29.8281 148.26 30.694 148.039 31.5664C147.831 32.4258 147.727 33.2591 147.727 34.0664C148 34.0273 148.208 33.9232 148.352 33.7539C148.508 33.5716 148.632 33.3698 148.723 33.1484C148.814 32.9271 148.898 32.7122 148.977 32.5039C149.055 32.2956 149.165 32.1393 149.309 32.0352C149.413 31.9701 149.517 31.8789 149.621 31.7617C149.738 31.6445 149.836 31.5339 149.914 31.4297C149.953 31.3776 149.973 31.3125 149.973 31.2344C149.973 31.1432 149.999 31.0651 150.051 31C150.129 30.9089 150.22 30.8112 150.324 30.707C150.441 30.6029 150.559 30.4987 150.676 30.3945C150.793 30.2904 150.897 30.1927 150.988 30.1016C151.092 29.9974 151.171 29.9128 151.223 29.8477C151.275 29.7826 151.301 29.6849 151.301 29.5547C151.314 29.4115 151.333 29.3073 151.359 29.2422C151.49 28.9948 151.633 28.7734 151.789 28.5781C151.945 28.3698 152.095 28.1549 152.238 27.9336C152.473 27.569 152.668 27.2109 152.824 26.8594C152.993 26.5078 153.137 26.1497 153.254 25.7852C153.371 25.4206 153.475 25.0495 153.566 24.6719C153.658 24.2812 153.749 23.8646 153.84 23.4219C153.892 23.1615 153.951 22.8815 154.016 22.582C154.094 22.2826 154.133 21.9766 154.133 21.6641C154.133 21.3385 154.081 21.0521 153.977 20.8047ZM170.52 22.1719C170.493 22.6667 170.422 23.1159 170.305 23.5195C170.201 23.9232 170.064 24.2943 169.895 24.6328C169.738 24.9714 169.562 25.2839 169.367 25.5703C169.172 25.8568 168.97 26.1367 168.762 26.4102C168.632 26.5794 168.527 26.7292 168.449 26.8594C168.371 26.9766 168.293 27.0807 168.215 27.1719C168.137 27.263 168.052 27.3411 167.961 27.4062C167.87 27.4714 167.746 27.5234 167.59 27.5625C167.486 27.5885 167.362 27.6211 167.219 27.6602C167.089 27.6862 166.971 27.7513 166.867 27.8555C166.841 27.8815 166.815 27.9336 166.789 28.0117C166.763 28.0768 166.737 28.1224 166.711 28.1484C166.607 28.2266 166.483 28.2786 166.34 28.3047C166.21 28.3177 166.092 28.3633 165.988 28.4414C165.884 28.5326 165.812 28.6107 165.773 28.6758C165.734 28.7409 165.663 28.806 165.559 28.8711C165.454 28.9362 165.331 28.9883 165.188 29.0273C165.057 29.0534 164.934 29.099 164.816 29.1641C164.725 29.2292 164.654 29.3073 164.602 29.3984C164.562 29.4766 164.491 29.5482 164.387 29.6133C164.178 29.7565 164.003 29.8672 163.859 29.9453C163.716 30.0104 163.599 30.1081 163.508 30.2383C163.43 30.3685 163.371 30.5573 163.332 30.8047C163.293 31.0521 163.273 31.4297 163.273 31.9375C163.273 32.237 163.28 32.5234 163.293 32.7969C163.319 33.0703 163.345 33.2721 163.371 33.4023C163.384 33.4414 163.423 33.5326 163.488 33.6758C163.566 33.806 163.658 33.9492 163.762 34.1055C163.879 34.2617 164.009 34.4049 164.152 34.5352C164.296 34.6523 164.445 34.7109 164.602 34.7109C164.836 34.7109 165.044 34.6263 165.227 34.457C165.409 34.2747 165.611 34.1185 165.832 33.9883C166.001 33.8841 166.223 33.7474 166.496 33.5781C166.77 33.3958 166.991 33.194 167.16 32.9727C167.212 32.8945 167.277 32.7904 167.355 32.6602C167.434 32.5169 167.518 32.3802 167.609 32.25C167.714 32.1068 167.824 31.9896 167.941 31.8984C168.072 31.7943 168.215 31.7422 168.371 31.7422C168.436 31.7422 168.521 31.7617 168.625 31.8008C168.612 32.0221 168.54 32.224 168.41 32.4062C168.293 32.5885 168.156 32.7578 168 32.9141C167.857 33.0573 167.727 33.1875 167.609 33.3047C167.492 33.4219 167.434 33.5195 167.434 33.5977C167.434 33.6237 167.434 33.6628 167.434 33.7148C167.447 33.7539 167.453 33.7865 167.453 33.8125C167.453 33.8776 167.375 33.9297 167.219 33.9688C167.076 33.9948 166.958 34.0469 166.867 34.125C166.802 34.1901 166.75 34.2682 166.711 34.3594C166.685 34.4375 166.639 34.5026 166.574 34.5547C166.431 34.6719 166.281 34.776 166.125 34.8672C165.969 34.9583 165.826 35.056 165.695 35.1602C165.552 35.2904 165.402 35.4401 165.246 35.6094C165.103 35.7786 164.96 35.9349 164.816 36.0781C164.673 36.2344 164.53 36.3646 164.387 36.4688C164.257 36.5729 164.133 36.625 164.016 36.625C163.951 36.625 163.879 36.612 163.801 36.5859C163.736 36.5729 163.671 36.5664 163.605 36.5664C163.54 36.5664 163.488 36.5924 163.449 36.6445C163.41 36.6966 163.358 36.7227 163.293 36.7227C163.176 36.7227 163.039 36.6641 162.883 36.5469C162.727 36.4427 162.596 36.3646 162.492 36.3125C162.31 36.2474 162.095 36.2018 161.848 36.1758C161.6 36.1628 161.424 36.1172 161.32 36.0391C161.229 35.9609 161.158 35.8177 161.105 35.6094C161.066 35.401 160.995 35.1992 160.891 35.0039C160.786 34.8216 160.669 34.6719 160.539 34.5547C160.409 34.4375 160.331 34.3464 160.305 34.2812C160.279 34.2031 160.259 34.099 160.246 33.9688C160.246 33.8255 160.246 33.6823 160.246 33.5391C160.246 33.3828 160.24 33.2331 160.227 33.0898C160.214 32.9336 160.188 32.7969 160.148 32.6797C160.135 32.6406 160.109 32.6081 160.07 32.582C160.031 32.543 160.012 32.4714 160.012 32.3672C160.012 32.3802 160.031 32.3542 160.07 32.2891C160.122 32.2109 160.148 32.1458 160.148 32.0938C160.214 31.0651 160.305 30.0885 160.422 29.1641C160.552 28.2266 160.715 27.3737 160.91 26.6055C161.105 25.8242 161.34 25.1471 161.613 24.5742C161.9 23.9883 162.238 23.526 162.629 23.1875C162.694 23.1354 162.766 23.1159 162.844 23.1289C162.935 23.1289 163.013 23.1029 163.078 23.0508C163.104 23.0247 163.124 22.9792 163.137 22.9141C163.163 22.8359 163.189 22.7839 163.215 22.7578C163.28 22.7057 163.352 22.6797 163.43 22.6797C163.521 22.6797 163.592 22.6536 163.645 22.6016C163.684 22.5755 163.736 22.5234 163.801 22.4453C163.866 22.3672 163.931 22.2826 163.996 22.1914C164.061 22.1003 164.126 22.0156 164.191 21.9375C164.257 21.8464 164.322 21.7812 164.387 21.7422C164.543 21.638 164.732 21.5664 164.953 21.5273C165.174 21.4883 165.376 21.4102 165.559 21.293C165.611 21.2669 165.669 21.2148 165.734 21.1367C165.799 21.0586 165.865 20.9805 165.93 20.9023C166.008 20.8112 166.079 20.7331 166.145 20.668C166.21 20.6029 166.275 20.5703 166.34 20.5703C166.366 20.5703 166.398 20.5768 166.438 20.5898C166.477 20.5898 166.509 20.5898 166.535 20.5898C166.561 20.5898 166.659 20.5117 166.828 20.3555C167.01 20.1992 167.173 20.0755 167.316 19.9844C167.355 19.9583 167.375 19.9128 167.375 19.8477C167.388 19.7695 167.414 19.7174 167.453 19.6914C167.518 19.6393 167.622 19.6003 167.766 19.5742C167.909 19.5352 168.046 19.4766 168.176 19.3984C168.28 19.3333 168.358 19.2682 168.41 19.2031C168.462 19.138 168.579 19.1055 168.762 19.1055C169.23 19.1445 169.589 19.2292 169.836 19.3594C170.083 19.4896 170.253 19.6784 170.344 19.9258C170.448 20.1602 170.5 20.4661 170.5 20.8438C170.513 21.2083 170.52 21.651 170.52 22.1719ZM167.746 22.1719C167.733 22.1458 167.681 22.1003 167.59 22.0352C167.512 21.957 167.466 21.9049 167.453 21.8789C167.414 21.8138 167.395 21.7487 167.395 21.6836C167.395 21.6055 167.388 21.5339 167.375 21.4688C167.362 21.4036 167.336 21.3516 167.297 21.3125C167.271 21.2734 167.212 21.2539 167.121 21.2539C167.043 21.2539 166.926 21.2995 166.77 21.3906C166.626 21.4688 166.47 21.5664 166.301 21.6836C166.145 21.8008 165.995 21.918 165.852 22.0352C165.708 22.1523 165.611 22.2435 165.559 22.3086C165.493 22.3867 165.402 22.5299 165.285 22.7383C165.181 22.9336 165.07 23.1354 164.953 23.3438C164.849 23.5521 164.751 23.7344 164.66 23.8906C164.569 24.0469 164.517 24.125 164.504 24.125C164.504 24.151 164.504 24.1836 164.504 24.2227C164.517 24.2617 164.523 24.2943 164.523 24.3203C164.523 24.3984 164.471 24.4701 164.367 24.5352C164.263 24.5872 164.211 24.6979 164.211 24.8672C164.211 24.9323 164.217 25.0104 164.23 25.1016C164.243 25.1797 164.25 25.2513 164.25 25.3164C164.25 25.4206 164.204 25.5247 164.113 25.6289C164.035 25.7331 163.983 25.8438 163.957 25.9609C163.84 26.3776 163.723 26.8268 163.605 27.3086C163.488 27.7773 163.43 28.2396 163.43 28.6953C163.43 28.8385 163.443 28.9622 163.469 29.0664C163.508 29.1576 163.612 29.2031 163.781 29.2031C163.898 29.2031 163.983 29.1836 164.035 29.1445C164.1 29.0924 164.152 29.0339 164.191 28.9688C164.23 28.8906 164.263 28.819 164.289 28.7539C164.315 28.6888 164.348 28.6367 164.387 28.5977C164.556 28.4414 164.751 28.2786 164.973 28.1094C165.194 27.9401 165.415 27.7643 165.637 27.582C165.871 27.3867 166.092 27.1914 166.301 26.9961C166.522 26.8008 166.711 26.6055 166.867 26.4102C166.906 26.3451 166.945 26.2409 166.984 26.0977C167.023 25.9414 167.082 25.7982 167.16 25.668C167.355 25.3294 167.505 24.8932 167.609 24.3594C167.727 23.8255 167.785 23.2396 167.785 22.6016C167.785 22.5365 167.779 22.4648 167.766 22.3867C167.766 22.3086 167.759 22.237 167.746 22.1719ZM180.441 20.4922C180.35 20.6094 180.227 20.6875 180.07 20.7266C179.927 20.7526 179.771 20.7721 179.602 20.7852C179.432 20.7982 179.257 20.8112 179.074 20.8242C178.892 20.8372 178.723 20.8763 178.566 20.9414C178.54 20.9544 178.514 20.987 178.488 21.0391C178.475 21.0781 178.436 21.0977 178.371 21.0977C178.345 21.0977 178.312 21.0977 178.273 21.0977C178.247 21.0846 178.221 21.0781 178.195 21.0781C178.091 21.0781 177.987 21.1432 177.883 21.2734C177.792 21.4036 177.681 21.4948 177.551 21.5469C177.316 21.651 177.089 21.7031 176.867 21.7031C176.646 21.7031 176.483 21.7552 176.379 21.8594C176.171 22.0417 176.021 22.2305 175.93 22.4258C175.852 22.6211 175.812 22.8229 175.812 23.0312C175.812 23.3698 175.891 23.7214 176.047 24.0859C176.216 24.4375 176.372 24.8216 176.516 25.2383V25.2773C176.516 25.3034 176.509 25.3359 176.496 25.375C176.496 25.4141 176.496 25.4466 176.496 25.4727C176.496 25.5117 176.503 25.5312 176.516 25.5312C176.542 25.5573 176.594 25.6549 176.672 25.8242C176.75 25.9935 176.835 26.1693 176.926 26.3516C177.017 26.5729 177.121 26.8138 177.238 27.0742C177.264 27.4648 177.368 27.8555 177.551 28.2461C177.733 28.6367 177.928 29.0273 178.137 29.418C178.358 29.7956 178.553 30.1732 178.723 30.5508C178.905 30.9284 178.996 31.2995 178.996 31.6641C178.983 31.8854 178.898 32.1263 178.742 32.3867C178.599 32.6341 178.436 32.8685 178.254 33.0898C178.072 33.3112 177.902 33.5 177.746 33.6562C177.603 33.7995 177.531 33.8711 177.531 33.8711C177.531 33.9102 177.531 33.9492 177.531 33.9883C177.544 34.0273 177.551 34.0599 177.551 34.0859C177.525 34.2292 177.434 34.3984 177.277 34.5938C177.121 34.7891 176.939 34.9844 176.73 35.1797C176.535 35.375 176.333 35.5508 176.125 35.707C175.93 35.8503 175.767 35.9349 175.637 35.9609C175.598 35.974 175.52 36.0065 175.402 36.0586C175.298 36.1237 175.188 36.1888 175.07 36.2539C174.953 36.332 174.836 36.4036 174.719 36.4688C174.615 36.5339 174.536 36.5729 174.484 36.5859C174.367 36.612 174.1 36.6315 173.684 36.6445C173.267 36.6706 172.844 36.6836 172.414 36.6836C172.036 36.6836 171.698 36.6706 171.398 36.6445C171.112 36.6185 170.969 36.5534 170.969 36.4492V36.4297C170.826 36.4297 170.702 36.4362 170.598 36.4492C170.507 36.4753 170.396 36.4883 170.266 36.4883C170.174 36.4883 170.07 36.4818 169.953 36.4688C169.849 36.4557 169.745 36.4297 169.641 36.3906C169.549 36.3516 169.471 36.2995 169.406 36.2344C169.328 36.1823 169.289 36.1172 169.289 36.0391C169.289 35.8828 169.367 35.7461 169.523 35.6289C169.68 35.5117 169.829 35.362 169.973 35.1797C170.116 34.9844 170.279 34.7565 170.461 34.4961C170.643 34.2227 170.826 33.9688 171.008 33.7344C171.19 33.487 171.366 33.2852 171.535 33.1289C171.717 32.9596 171.874 32.875 172.004 32.875C172.147 32.875 172.225 32.9401 172.238 33.0703C172.264 33.2005 172.277 33.3503 172.277 33.5195C172.277 33.6758 172.29 33.819 172.316 33.9492C172.355 34.0794 172.46 34.1445 172.629 34.1445C172.772 34.1445 172.876 34.1185 172.941 34.0664C173.007 34.0013 173.111 33.9688 173.254 33.9688C173.371 33.9688 173.456 33.9883 173.508 34.0273C173.573 34.0664 173.625 34.112 173.664 34.1641C173.703 34.2161 173.755 34.2617 173.82 34.3008C173.885 34.3398 173.99 34.3594 174.133 34.3594C174.367 34.3594 174.628 34.3138 174.914 34.2227C175.214 34.1185 175.552 34.0664 175.93 34.0664C176.125 34.0664 176.32 34.0859 176.516 34.125C176.503 34.0859 176.496 34.0273 176.496 33.9492C176.496 33.8581 176.503 33.7734 176.516 33.6953C176.542 33.6172 176.555 33.5326 176.555 33.4414C176.555 33.2461 176.49 33.1224 176.359 33.0703C176.242 33.0052 176.145 32.8945 176.066 32.7383C175.988 32.4779 175.943 32.2174 175.93 31.957C175.917 31.6836 175.871 31.4297 175.793 31.1953C175.767 31.1693 175.734 31.1628 175.695 31.1758C175.669 31.1758 175.65 31.1367 175.637 31.0586C175.637 30.9935 175.637 30.9089 175.637 30.8047C175.65 30.7005 175.656 30.5898 175.656 30.4727C175.656 30.3294 175.65 30.1862 175.637 30.043C175.624 29.8867 175.585 29.763 175.52 29.6719C175.493 29.6198 175.409 29.5417 175.266 29.4375C175.122 29.3333 175.018 29.2096 174.953 29.0664C174.849 28.8841 174.777 28.6497 174.738 28.3633C174.712 28.0768 174.634 27.849 174.504 27.6797C174.491 27.6536 174.439 27.6276 174.348 27.6016C174.27 27.5755 174.224 27.5495 174.211 27.5234C174.133 27.2891 174.087 26.9635 174.074 26.5469C174.061 26.1172 173.964 25.6289 173.781 25.082C173.768 25.056 173.742 25.043 173.703 25.043C173.664 25.043 173.645 25.0039 173.645 24.9258C173.632 24.7435 173.618 24.5807 173.605 24.4375C173.605 24.2812 173.605 24.1315 173.605 23.9883C173.605 23.2852 173.827 22.6797 174.27 22.1719C174.725 21.6641 175.279 21.2018 175.93 20.7852C176.034 20.7201 176.132 20.694 176.223 20.707C176.327 20.7201 176.424 20.7005 176.516 20.6484C176.594 20.5964 176.652 20.5052 176.691 20.375C176.73 20.2448 176.828 20.1797 176.984 20.1797C177.01 20.1797 177.036 20.1862 177.062 20.1992C177.102 20.1992 177.134 20.1992 177.16 20.1992C177.238 20.1992 177.303 20.1536 177.355 20.0625C177.421 19.9583 177.486 19.8932 177.551 19.8672C177.746 19.763 177.967 19.6979 178.215 19.6719C178.475 19.6328 178.736 19.5417 178.996 19.3984C179.074 19.3594 179.133 19.3008 179.172 19.2227C179.224 19.1315 179.289 19.0859 179.367 19.0859C179.432 19.0859 179.497 19.0924 179.562 19.1055C179.641 19.1185 179.712 19.125 179.777 19.125C179.855 19.125 179.927 19.099 179.992 19.0469C180.057 18.9818 180.129 18.9492 180.207 18.9492C180.35 18.9492 180.474 19.0208 180.578 19.1641C180.695 19.3073 180.754 19.4831 180.754 19.6914C180.754 19.9648 180.65 20.2318 180.441 20.4922Z" fill="white"/>
<path d="M1.52542 29.491V29.0892H1.77966V26.9463H2.0339V25.8749H2.28814V25.0713H2.54237V24.2678H2.79661V23.732H3.05085V23.1963H3.30508V22.6606H3.55932V22.3928V22.1249H3.81356V21.5892H4.0678V21.0535H4.32203V20.7856H4.57627V20.5178H4.83051V19.982H5.08475V19.7142H5.33898V19.4463H5.59322V19.1785H5.84746H6.1017V18.9106H6.35593V18.6428H6.61017V18.3749H6.86441V18.107H7.11864V17.8392H7.37288V17.5713H7.88136V17.3035H8.13559V17.0356H8.64407V16.7678H8.8983V16.4999H9.40678V16.232H9.66102H9.91525V15.9642H10.4237V15.6963H10.9322V15.1606H11.6949V14.8928H12.7119V14.6249H13.9831V14.357H14.6186H16.5254L16.5254 14.0892H17.0339V13.8213H17.2881V13.2856H17.0339V13.0178H16.7797V12.7499H16.2712V12.482H13.9831V12.7499H12.9661V13.0178H11.9492V13.2856H11.4407V13.5535H10.678V13.8213H10.4237H10.1695H9.91525V14.0892H9.40678V14.357H8.8983V14.6249H8.38983H8.13559V14.8928H7.88136V15.1606H7.37288V15.4285H7.11864V15.6963H6.86441H6.61017V15.9642H6.35593V16.232H6.1017L6.1017 16.4999H5.84746V16.7678H5.59322V17.0356H5.33898V17.3035H5.08475V17.5713H4.83051V17.7053V17.8392H4.57627V18.107H4.32203V18.3749H4.0678V18.6428H3.81356V18.9106H3.55932V19.1785H3.30508V19.4463V19.7142H3.05085V19.982H2.79661V20.2499V20.5178H2.54237V20.7856H2.28814V21.0535V21.3213H2.0339V21.5892H1.77966V21.857H1.52542V22.1249H1.27119V22.6606V22.9285H1.01695V23.1963H0.762712V23.4642H0.508475V23.732H0.254237V23.9999H0V22.6606V22.3928H0.254237V21.857V21.5892H0.508475V20.7856L0.762712 20.6517V19.982H1.01695V19.4463H1.27119V18.9106H1.52542V18.3749H1.77966V17.8392H2.0339V17.5713V17.3035H2.28814V17.0356H2.54237V16.7678H2.79661L2.92373 16.366L3.05085 16.232V15.9642H3.30508V15.6963H3.55932V15.4285H3.81356V15.1606H4.0678V14.8928H4.32203V14.6249H4.57627V14.357H4.83051V14.0892H5.08475V13.8213H5.33898V13.5535H5.59322V13.2856H5.84746V13.0178H6.1017V12.7499H6.35593V12.482H6.61017H6.86441H7.11864V12.2142H7.37288V11.9463H8.13559V11.6785H8.64407L8.8983 11.5445L9.27966 11.2767L9.78814 11.0088L10.5508 10.741L11.4407 10.4731L12.5847 10.2053L13.4746 9.80347H18.8136V10.0713H19.8305V10.3392H20.8475V10.607H21.6102V10.8749H22.1186V11.1428H22.3729V12.2142V12.482H22.1186V12.7499H21.8644V13.2856H21.6102V13.5535H21.3559L21.3559 13.8213H21.1017V14.0892H20.8475V14.357H20.5932V14.8928H20.339V15.4285H20.0847V15.9642H19.8305V16.4999H19.5763V17.0356H19.322V18.107V18.3749H19.0678V19.4463H18.8136V20.2499H18.5593V21.0535H18.3051V22.1249H18.0508V22.6606H17.7966V23.1963H17.5424V23.4642V23.732H17.2881V23.9999V24.2678H17.0339V24.5356H16.7797V24.8035H16.5254V25.0713H16.2712V25.3392H16.0169V25.607H15.7627V25.8749H15.5085V26.1428H15V26.4106H14.7458V26.6785H14.2373V26.9463H13.7288V27.2142H12.9661V27.482H11.9492L11.9492 27.7499H11.1864V28.0178H9.91525V28.2856H8.64407V28.5535H8.38983V28.8213H7.62712V29.0892H6.86441V29.357H6.35593V29.6249H5.84746V29.8928H5.59322V30.1606H5.33898V30.4285H5.08475V30.6963H4.83051V30.9642H4.32203V31.232H4.0678V31.4999H3.81356V31.7678H3.55932V32.3035H3.30508V32.5713H3.05085V32.8392H2.79661V33.3749V33.6428H2.54237V33.9106H1.52542V29.491Z" fill="white"/>
<path d="M7.62724 30.9642V30.6964H8.38995V30.4285H8.89843V30.1606H9.66114V29.8928H11.1866V29.6249H11.695V29.3571H12.712V29.0892H12.9662H13.2205V28.8214H13.7289V28.5535H13.9832H14.4916V28.2856H15.2544V29.8928H15.0001V30.6964H14.7459V31.2321H14.4916V31.7678H14.2374V32.3035H13.9832V33.1071H13.7289V33.3749V33.6428H13.4747V33.9106H13.2205V34.1785H12.9662V34.4464H12.712V34.7142H12.4578V34.9821H12.2035V35.2499H11.9493V35.5178H11.695V35.7856H11.4408V36.0535H10.9323V36.3214H10.4239V36.5892H10.1696V36.8571H9.66114V37.1249H8.89843V37.3928H8.38995V37.6606H7.88148V37.9285H7.11877V38.1964H6.35606V38.4642H5.59334V38.7321H4.06792V38.9999H1.77979V38.1964H2.03402V37.9285H2.28826V37.3928H2.5425V36.8571H2.79673V36.3214H3.05097V35.7856H3.30521V35.2499H3.55945V34.9821H3.81368V34.4464H4.06792V33.9106H4.32216V33.6428H4.5764V33.3749H4.83063V33.1071H5.08487V32.8392H5.33911V32.5714H5.59334V32.3035H5.84758V32.0356H6.35606V31.7678H6.61029V31.4999H6.99165H7.37301V31.2321H7.62724V30.9642Z" fill="white"/>
<path d="M27.4577 9H29.4916V9.26786H29.7459V9.53571H30.0001V11.1429H29.7459V11.4107H29.4916H29.2374V11.6786H28.9832V11.9464H28.2204V12.2143H27.712V12.4821H27.2035V12.75H25.9323V12.4821H25.4238V10.3393H25.6781V10.0714H26.1865V9.80357H26.695V9.53571H26.9493V9.26786H27.4577V9Z" fill="white"/>
<path d="M17.5423 26.4108H17.7965V26.143H18.0508V25.8751H18.305V25.6072H18.5592V25.3394H18.8135V24.8037H19.0677V24.268H19.3219V23.7322H19.5762V23.1965H19.8304V22.393H20.0847V21.3215H20.3389V20.518H20.5931V19.4465H20.8474V18.3751H21.1016V17.5715H21.3558V16.768H21.6101V16.2322H21.8643H22.1186V15.6965H22.3728V15.4287H22.627V14.6251H22.8813V14.3572H23.3897V14.0894H23.644V13.8215H24.2796H24.9152V14.0894H25.4236V14.3572H26.1863V14.893H26.4406V15.4287H26.6948V15.6965H26.9491V16.2322H27.2033V16.768H27.4575V17.5715H27.7118V18.3751H27.966V19.7144H28.2202V26.6787H27.966V27.7501H27.7118V28.5537H27.4575V29.3572H27.2033V29.893H26.9491V30.6965H26.6948V30.9644H26.4406V31.5001H26.1863V31.768H25.9321V32.0358H25.6779V32.3037V32.7071H25.4236V33.0001H24.9999L25.0095 33.3751H24.6609V33.643H24.4067V33.9108H24.1525V34.1787H23.8982V34.4465H23.644V34.7144H23.3897V34.9822H23.1355V35.2501H22.627V35.518H22.3728V35.7858H21.8643V36.0537H21.6101V36.3215H21.1016V36.5894H20.5931V36.8572H20.0847V37.1251H19.5762V37.393H18.8135V37.6608H17.7965V37.9287H16.7796V38.1965H16.5253H11.6948V37.6608H11.9491V37.393H12.2033V37.1251H12.4575V36.8572H12.966V36.5894H13.2202V36.3215H13.4745V36.0537H13.7287V35.7858H13.983V35.518H14.4914V35.2501H14.7457V34.9822H14.9999V34.7144H15.2541V34.1787H15.5084V33.643H15.7626V33.1072H16.0169V32.8394H16.2711V32.3037H16.5253V31.768H16.7796V30.9644H17.0338V29.6251H17.288V28.5537H17.5423V26.4108Z" fill="white"/>
</svg>
