<svg width="168" height="31" viewBox="0 0 168 31" fill="none" xmlns="http://www.w3.org/2000/svg">
<path d="M14.72 11.988C15.488 11.988 16.088 12.204 16.52 12.636C16.976 13.068 17.204 13.668 17.204 14.436C17.204 14.628 17.192 14.832 17.168 15.048C17.144 15.24 17.096 15.408 17.024 15.552C16.712 15.504 16.364 15.468 15.98 15.444C15.596 15.396 15.14 15.372 14.612 15.372C13.532 15.372 12.452 15.468 11.372 15.66C10.292 15.852 9.26 16.008 8.276 16.128C7.196 18.672 6.308 21.06 5.612 23.292C4.916 25.524 4.376 27.732 3.992 29.916C3.176 29.724 2.456 29.376 1.832 28.872C1.208 28.368 0.62 27.66 0.0680002 26.748C0.236 26.364 0.44 25.908 0.68 25.38C0.92 24.828 1.208 24.144 1.544 23.328C1.88 22.488 2.276 21.48 2.732 20.304C3.212 19.104 3.776 17.676 4.424 16.02C3.416 15.684 2.756 15.096 2.444 14.256C2.564 14.136 2.9 14.004 3.452 13.86C4.004 13.692 4.676 13.512 5.468 13.32C5.828 12.384 6.14 11.556 6.404 10.836C6.668 10.092 6.908 9.396 7.124 8.748C7.34 8.076 7.532 7.428 7.7 6.804C7.892 6.156 8.06 5.472 8.204 4.752H8.024C7.112 4.752 6.368 4.536 5.792 4.104C5.24 3.672 4.964 3.108 4.964 2.412C4.964 2.22 4.988 1.992 5.036 1.728C5.108 1.464 5.192 1.236 5.288 1.044C5.744 1.116 6.188 1.164 6.62 1.188C7.076 1.212 7.664 1.224 8.384 1.224C9.896 1.224 11.312 1.188 12.632 1.116C13.952 1.02 15.14 0.923998 16.196 0.827998C17.276 0.731999 18.2 0.648 18.968 0.575999C19.736 0.479999 20.324 0.431999 20.732 0.431999C21.284 0.431999 21.776 0.719999 22.208 1.296C22.64 1.872 22.976 2.688 23.216 3.744C22.448 3.672 21.824 3.624 21.344 3.6C20.888 3.576 20.48 3.564 20.12 3.564C18.896 3.564 17.768 3.624 16.736 3.744C15.728 3.84 14.768 3.96 13.856 4.104C13.712 4.32 13.544 4.596 13.352 4.932C13.184 5.268 12.956 5.748 12.668 6.372C12.38 6.972 12.008 7.764 11.552 8.748C11.12 9.732 10.568 10.98 9.896 12.492C10.832 12.348 11.72 12.228 12.56 12.132C13.424 12.036 14.144 11.988 14.72 11.988ZM17.8585 26.28C17.9785 25.584 18.1825 24.672 18.4705 23.544C18.7825 22.392 19.1425 21.18 19.5505 19.908C19.9585 18.612 20.3905 17.316 20.8465 16.02C21.3025 14.724 21.7465 13.56 22.1785 12.528C22.4905 11.784 22.7665 11.208 23.0065 10.8C23.2465 10.368 23.5105 10.008 23.7985 9.72C24.1345 9.768 24.4825 9.852 24.8425 9.972C25.2025 10.092 25.5505 10.236 25.8865 10.404C26.2225 10.572 26.5225 10.752 26.7865 10.944C27.0505 11.112 27.2545 11.28 27.3985 11.448C26.7505 12.216 26.1745 13.092 25.6705 14.076C25.1905 15.06 24.6985 16.32 24.1945 17.856C25.4905 16.704 26.6305 15.6 27.6145 14.544C28.6225 13.488 29.5585 12.312 30.4225 11.016C30.5665 10.896 30.8185 10.836 31.1785 10.836C31.5145 10.836 31.8385 10.896 32.1505 11.016C32.4625 11.112 32.6785 11.256 32.7985 11.448C32.3665 12.6 32.1505 13.74 32.1505 14.868C32.1505 15.924 32.3065 16.716 32.6185 17.244C32.5945 17.388 32.4265 17.664 32.1145 18.072C31.8265 18.48 31.5025 18.864 31.1425 19.224C30.4945 18.888 29.9185 18.432 29.4145 17.856C28.9105 17.256 28.5385 16.608 28.2985 15.912C27.1705 16.704 26.2105 17.484 25.4185 18.252C24.6265 18.996 23.9425 19.836 23.3665 20.772C22.8145 21.684 22.3345 22.74 21.9265 23.94C21.5425 25.14 21.1705 26.568 20.8105 28.224C20.5945 28.2 20.3305 28.116 20.0185 27.972C19.7305 27.852 19.4305 27.696 19.1185 27.504C18.8305 27.312 18.5665 27.108 18.3265 26.892C18.0865 26.676 17.9305 26.472 17.8585 26.28ZM43.034 26.208C42.578 25.824 42.266 25.344 42.098 24.768C41.954 24.192 41.882 23.7 41.882 23.292C41.882 22.788 41.942 22.356 42.062 21.996C41.966 21.996 41.75 22.188 41.414 22.572C41.078 22.956 40.706 23.412 40.298 23.94C39.914 24.468 39.53 24.984 39.146 25.488C38.762 25.992 38.474 26.364 38.282 26.604C37.97 26.94 37.67 27.204 37.382 27.396C37.118 27.588 36.902 27.696 36.734 27.72C36.35 27.696 35.942 27.612 35.51 27.468C35.102 27.348 34.706 27.168 34.322 26.928C33.962 26.688 33.638 26.4 33.35 26.064C33.086 25.728 32.906 25.344 32.81 24.912C32.81 24.24 32.822 23.688 32.846 23.256C32.894 22.824 32.978 22.356 33.098 21.852C33.314 20.94 33.626 19.908 34.034 18.756C34.466 17.604 34.958 16.476 35.51 15.372C36.062 14.244 36.674 13.2 37.346 12.24C38.042 11.256 38.774 10.488 39.542 9.936C39.758 9.936 40.01 9.96 40.298 10.008C40.586 10.032 40.874 10.092 41.162 10.188C41.474 10.284 41.762 10.404 42.026 10.548C42.314 10.668 42.554 10.836 42.746 11.052C42.53 11.292 41.978 12.096 41.09 13.464C40.226 14.832 39.254 16.8 38.174 19.368C38.054 19.632 37.91 20.016 37.742 20.52C37.574 21.024 37.406 21.552 37.238 22.104C37.07 22.656 36.926 23.196 36.806 23.724C36.71 24.252 36.662 24.672 36.662 24.984C36.662 25.176 36.686 25.32 36.734 25.416C36.806 25.512 36.866 25.584 36.914 25.632C37.274 25.488 37.73 25.092 38.282 24.444C38.834 23.796 39.602 22.8 40.586 21.456C40.826 21.12 41.102 20.736 41.414 20.304C41.75 19.872 42.086 19.416 42.422 18.936C42.758 18.432 43.07 17.916 43.358 17.388C43.67 16.86 43.922 16.332 44.114 15.804C44.21 15.516 44.33 15.18 44.474 14.796C44.642 14.388 44.834 13.968 45.05 13.536C45.29 13.104 45.554 12.672 45.842 12.24C46.154 11.784 46.514 11.364 46.922 10.98C47.234 10.98 47.57 11.016 47.93 11.088C48.29 11.16 48.626 11.256 48.938 11.376C49.274 11.472 49.562 11.592 49.802 11.736C50.042 11.856 50.222 11.988 50.342 12.132C49.91 13.188 49.43 14.232 48.902 15.264C48.374 16.296 47.882 17.316 47.426 18.324C46.97 19.308 46.586 20.292 46.274 21.276C45.962 22.26 45.806 23.22 45.806 24.156C45.806 24.66 45.842 25.104 45.914 25.488C46.01 25.848 46.106 26.16 46.202 26.424C46.298 26.664 46.382 26.868 46.454 27.036C46.55 27.204 46.598 27.348 46.598 27.468C46.598 27.492 46.574 27.528 46.526 27.576C46.502 27.6 46.478 27.612 46.454 27.612C46.286 27.612 46.07 27.576 45.806 27.504C45.542 27.432 45.242 27.324 44.906 27.18C44.594 27.06 44.27 26.916 43.934 26.748C43.622 26.58 43.322 26.4 43.034 26.208ZM53.0144 13.212C52.8944 13.068 52.7864 12.768 52.6904 12.312C52.5944 11.832 52.5464 11.424 52.5464 11.088C53.1704 11.136 53.7704 11.184 54.3464 11.232C54.9224 11.256 55.4504 11.28 55.9304 11.304C56.2904 10.584 56.6744 9.876 57.0824 9.18C57.5144 8.46 57.9224 7.812 58.3064 7.236C58.7144 6.636 59.0864 6.132 59.4224 5.724C59.7824 5.316 60.0584 5.052 60.2504 4.932C60.4904 4.932 60.7904 4.98 61.1504 5.076C61.5344 5.148 61.9184 5.256 62.3024 5.4C62.6864 5.52 63.0344 5.652 63.3464 5.796C63.6584 5.94 63.8744 6.084 63.9944 6.228C63.2744 7.14 62.6504 7.992 62.1224 8.784C61.6184 9.552 61.0664 10.44 60.4664 11.448C60.9464 11.448 61.4264 11.436 61.9064 11.412C62.4104 11.388 62.9144 11.352 63.4184 11.304C63.5384 11.424 63.6344 11.58 63.7064 11.772C63.7784 11.94 63.8144 12.12 63.8144 12.312C62.6384 12.744 61.2104 12.984 59.5304 13.032C58.9304 14.184 58.3904 15.336 57.9104 16.488C57.4544 17.616 57.0584 18.708 56.7224 19.764C56.4104 20.82 56.1584 21.816 55.9664 22.752C55.7984 23.688 55.7144 24.528 55.7144 25.272C55.7144 26.328 56.1104 26.916 56.9024 27.036C57.6224 26.94 58.3064 26.76 58.9544 26.496C59.6024 26.232 60.1784 25.896 60.6824 25.488C60.8264 25.704 60.9104 25.884 60.9344 26.028C60.7904 26.244 60.5384 26.496 60.1784 26.784C59.8424 27.072 59.4704 27.348 59.0624 27.612C58.6544 27.9 58.2584 28.14 57.8744 28.332C57.4904 28.524 57.2024 28.632 57.0104 28.656C56.4104 28.632 55.8104 28.5 55.2104 28.26C54.6104 28.02 54.0584 27.72 53.5544 27.36C53.0744 27 52.6784 26.604 52.3664 26.172C52.0544 25.716 51.8984 25.272 51.8984 24.84C51.8984 24.264 51.9704 23.544 52.1144 22.68C52.2824 21.792 52.5104 20.832 52.7984 19.8C53.0864 18.768 53.4224 17.688 53.8064 16.56C54.1904 15.432 54.6104 14.316 55.0664 13.212H53.0144ZM75.9667 12.456C76.2067 12.456 76.4827 12.504 76.7947 12.6C77.1307 12.672 77.4307 12.78 77.6947 12.924C77.9587 13.044 78.1747 13.176 78.3427 13.32C78.5347 13.464 78.6307 13.596 78.6307 13.716C78.1507 14.724 77.7067 15.744 77.2987 16.776C76.8907 17.784 76.5427 18.756 76.2547 19.692C75.9667 20.628 75.7387 21.504 75.5707 22.32C75.4267 23.136 75.3547 23.844 75.3547 24.444C75.3547 25.116 75.4267 25.68 75.5707 26.136C75.7147 26.568 75.9547 26.88 76.2907 27.072C76.0027 27.264 75.6307 27.42 75.1747 27.54C74.7187 27.66 74.3107 27.72 73.9507 27.72C72.6547 27.72 72.0067 26.832 72.0067 25.056C72.0067 23.688 72.4627 21.816 73.3747 19.44C72.8947 20.544 72.3427 21.588 71.7187 22.572C71.0947 23.532 70.4587 24.384 69.8107 25.128C69.1627 25.872 68.5027 26.484 67.8307 26.964C67.1827 27.42 66.5827 27.696 66.0307 27.792C65.1427 27.744 64.4227 27.324 63.8707 26.532C63.3187 25.716 63.0427 24.684 63.0427 23.436C63.0427 22.092 63.3307 20.676 63.9067 19.188C64.4827 17.7 65.2147 16.32 66.1027 15.048C67.0147 13.776 67.9987 12.72 69.0547 11.88C70.1107 11.016 71.1307 10.56 72.1147 10.512C72.3547 10.584 72.6187 10.728 72.9067 10.944C73.2187 11.16 73.5067 11.412 73.7707 11.7C74.0587 11.988 74.2987 12.288 74.4907 12.6C74.6827 12.888 74.7907 13.14 74.8147 13.356C73.8547 13.5 72.8587 13.968 71.8267 14.76C70.8187 15.552 69.8947 16.512 69.0547 17.64C68.2387 18.744 67.5667 19.932 67.0387 21.204C66.5107 22.476 66.2467 23.664 66.2467 24.768C66.2467 25.224 66.4147 25.512 66.7507 25.632C67.4467 25.488 68.2507 24.9 69.1627 23.868C70.0747 22.812 71.1787 21.192 72.4747 19.008C72.7147 18.576 72.9787 18.096 73.2667 17.568C73.5787 17.04 73.8907 16.488 74.2027 15.912C74.5147 15.336 74.8147 14.76 75.1027 14.184C75.4147 13.584 75.7027 13.008 75.9667 12.456ZM92.8768 12.672C92.8528 13.128 92.7688 13.608 92.6248 14.112C92.5048 14.592 92.3488 15.036 92.1568 15.444C91.9648 15.828 91.7608 16.152 91.5448 16.416C91.3288 16.68 91.1248 16.812 90.9328 16.812C90.6688 16.788 90.5128 16.608 90.4648 16.272C90.4648 16.2 90.4888 16.092 90.5368 15.948C90.6088 15.78 90.6808 15.6 90.7528 15.408C90.8248 15.216 90.8848 15.024 90.9328 14.832C91.0048 14.64 91.0408 14.472 91.0408 14.328C91.0408 13.992 90.9568 13.716 90.7888 13.5C90.6448 13.26 90.4408 13.14 90.1768 13.14C89.2168 13.14 88.4848 13.74 87.9808 14.94C87.4768 16.14 87.2248 17.904 87.2248 20.232C87.2248 20.472 87.2368 20.616 87.2608 20.664C87.7648 20.64 88.2088 20.628 88.5928 20.628C89.0008 20.604 89.3968 20.592 89.7808 20.592C89.8048 20.64 89.8168 20.736 89.8168 20.88C89.8168 21.096 89.7688 21.252 89.6728 21.348C89.1208 21.468 88.6768 21.576 88.3408 21.672C88.0288 21.744 87.7888 21.816 87.6208 21.888C87.4528 21.96 87.3448 22.044 87.2968 22.14C87.2728 22.212 87.2608 22.32 87.2608 22.464C87.2608 22.656 87.2608 22.848 87.2608 23.04C87.2848 23.232 87.2968 23.472 87.2968 23.76C87.2968 25.776 86.7448 27.396 85.6408 28.62C84.5608 29.844 83.0488 30.552 81.1048 30.744C80.7688 30.72 80.4208 30.624 80.0608 30.456C79.7008 30.288 79.3528 30.072 79.0168 29.808C78.7048 29.544 78.4288 29.244 78.1888 28.908C77.9488 28.596 77.7808 28.272 77.6848 27.936C77.6848 27.024 77.8768 26.16 78.2608 25.344C78.6448 24.504 79.1608 23.772 79.8088 23.148C80.4808 22.5 81.2608 21.984 82.1488 21.6C83.0608 21.192 84.0448 20.952 85.1008 20.88C85.1008 20.28 85.0408 19.692 84.9208 19.116C84.8008 18.54 84.6688 17.988 84.5248 17.46C84.4048 16.908 84.2848 16.38 84.1648 15.876C84.0448 15.348 83.9848 14.832 83.9848 14.328C83.9848 13.68 84.1168 13.044 84.3808 12.42C84.6448 11.772 84.9928 11.184 85.4248 10.656C85.8568 10.104 86.3608 9.636 86.9368 9.252C87.5128 8.868 88.1128 8.604 88.7368 8.46C89.0008 8.532 89.3488 8.748 89.7808 9.108C90.2368 9.444 90.6808 9.828 91.1128 10.26C91.5448 10.692 91.9288 11.136 92.2648 11.592C92.6008 12.024 92.8048 12.384 92.8768 12.672ZM80.9968 29.088C81.5728 28.848 82.1128 28.5 82.6168 28.044C83.1448 27.588 83.6008 27.072 83.9848 26.496C84.3688 25.92 84.6688 25.308 84.8848 24.66C85.1248 24.012 85.2448 23.376 85.2448 22.752C84.7648 22.824 84.2368 23.052 83.6608 23.436C83.0848 23.796 82.5448 24.24 82.0408 24.768C81.5368 25.272 81.1168 25.8 80.7808 26.352C80.4448 26.904 80.2768 27.384 80.2768 27.792C80.2768 28.32 80.5168 28.752 80.9968 29.088ZM126.14 7.596C126.14 8.916 125.804 10.176 125.132 11.376C124.484 12.576 123.596 13.632 122.468 14.544C121.364 15.432 120.056 16.14 118.544 16.668C117.056 17.196 115.472 17.46 113.792 17.46C113.192 17.46 112.712 17.388 112.352 17.244C112.016 17.076 111.632 16.764 111.2 16.308C110 18.924 109.016 21.336 108.248 23.544C107.504 25.728 106.916 27.852 106.484 29.916C105.572 29.7 104.828 29.316 104.252 28.764C103.676 28.236 103.148 27.564 102.668 26.748C102.908 26.292 103.196 25.692 103.532 24.948C103.868 24.204 104.276 23.292 104.756 22.212C105.236 21.108 105.788 19.8 106.412 18.288C107.06 16.752 107.816 14.964 108.68 12.924C109.064 11.988 109.4 11.172 109.688 10.476C109.976 9.78 110.228 9.132 110.444 8.532C110.66 7.908 110.852 7.296 111.02 6.696C111.212 6.096 111.404 5.436 111.596 4.716C110.468 5.076 109.424 5.496 108.464 5.976C107.528 6.456 106.748 6.96 106.124 7.488C105.908 7.344 105.68 7.128 105.44 6.84C105.224 6.552 105.02 6.24 104.828 5.904C104.636 5.544 104.468 5.184 104.324 4.824C104.18 4.464 104.096 4.14 104.072 3.852C104.768 3.372 105.632 2.928 106.664 2.52C107.696 2.112 108.8 1.764 109.976 1.476C111.152 1.164 112.364 0.923998 113.612 0.755999C114.884 0.587998 116.096 0.503998 117.248 0.503998C118.616 0.503998 119.852 0.683998 120.956 1.044C122.06 1.38 122.996 1.86 123.764 2.484C124.532 3.108 125.12 3.852 125.528 4.716C125.936 5.58 126.14 6.54 126.14 7.596ZM119.732 3.276C118.82 3.276 117.884 3.348 116.924 3.492L117.356 4.14C117.116 4.452 116.816 4.92 116.456 5.544C116.096 6.168 115.7 6.924 115.268 7.812C114.836 8.676 114.356 9.648 113.828 10.728C113.324 11.808 112.784 12.948 112.208 14.148C114.08 14.148 115.784 13.98 117.32 13.644C118.856 13.284 120.164 12.804 121.244 12.204C122.348 11.58 123.2 10.86 123.8 10.044C124.424 9.228 124.736 8.352 124.736 7.416C124.736 6.168 124.316 5.172 123.476 4.428C122.636 3.66 121.388 3.276 119.732 3.276ZM136.119 12.456C136.359 12.456 136.635 12.504 136.947 12.6C137.283 12.672 137.583 12.78 137.847 12.924C138.111 13.044 138.327 13.176 138.495 13.32C138.687 13.464 138.783 13.596 138.783 13.716C138.303 14.724 137.859 15.744 137.451 16.776C137.043 17.784 136.695 18.756 136.407 19.692C136.119 20.628 135.891 21.504 135.723 22.32C135.579 23.136 135.507 23.844 135.507 24.444C135.507 25.116 135.579 25.68 135.723 26.136C135.867 26.568 136.107 26.88 136.443 27.072C136.155 27.264 135.783 27.42 135.327 27.54C134.871 27.66 134.463 27.72 134.103 27.72C132.807 27.72 132.159 26.832 132.159 25.056C132.159 23.688 132.615 21.816 133.527 19.44C133.047 20.544 132.495 21.588 131.871 22.572C131.247 23.532 130.611 24.384 129.963 25.128C129.315 25.872 128.655 26.484 127.983 26.964C127.335 27.42 126.735 27.696 126.183 27.792C125.295 27.744 124.575 27.324 124.023 26.532C123.471 25.716 123.195 24.684 123.195 23.436C123.195 22.092 123.483 20.676 124.059 19.188C124.635 17.7 125.367 16.32 126.255 15.048C127.167 13.776 128.151 12.72 129.207 11.88C130.263 11.016 131.283 10.56 132.267 10.512C132.507 10.584 132.771 10.728 133.059 10.944C133.371 11.16 133.659 11.412 133.923 11.7C134.211 11.988 134.451 12.288 134.643 12.6C134.835 12.888 134.943 13.14 134.967 13.356C134.007 13.5 133.011 13.968 131.979 14.76C130.971 15.552 130.047 16.512 129.207 17.64C128.391 18.744 127.719 19.932 127.191 21.204C126.663 22.476 126.399 23.664 126.399 24.768C126.399 25.224 126.567 25.512 126.903 25.632C127.599 25.488 128.403 24.9 129.315 23.868C130.227 22.812 131.331 21.192 132.627 19.008C132.867 18.576 133.131 18.096 133.419 17.568C133.731 17.04 134.043 16.488 134.355 15.912C134.667 15.336 134.967 14.76 135.255 14.184C135.567 13.584 135.855 13.008 136.119 12.456ZM153.321 12.096C153.225 13.584 152.961 14.868 152.529 15.948C152.097 17.004 151.473 17.94 150.657 18.756C149.865 19.548 148.893 20.268 147.741 20.916C146.589 21.564 145.245 22.188 143.709 22.788C143.709 22.932 143.697 23.088 143.673 23.256C143.673 23.4 143.673 23.556 143.673 23.724C143.673 24.036 143.697 24.36 143.745 24.696C143.793 25.032 143.877 25.344 143.997 25.632C144.117 25.92 144.285 26.16 144.501 26.352C144.717 26.52 144.993 26.604 145.329 26.604C145.977 26.604 146.613 26.46 147.237 26.172C147.861 25.884 148.449 25.536 149.001 25.128C149.577 24.696 150.105 24.24 150.585 23.76C151.089 23.256 151.533 22.8 151.917 22.392C152.157 22.608 152.361 22.812 152.529 23.004C151.449 24.444 150.261 25.644 148.965 26.604C147.693 27.54 146.481 28.14 145.329 28.404C143.673 28.212 142.377 27.612 141.441 26.604C140.529 25.572 140.073 24.336 140.073 22.896C140.073 21.912 140.205 20.916 140.469 19.908C140.757 18.876 141.141 17.892 141.621 16.956C142.125 15.996 142.701 15.096 143.349 14.256C144.021 13.416 144.729 12.684 145.473 12.06C146.241 11.436 147.021 10.944 147.813 10.584C148.629 10.224 149.433 10.044 150.225 10.044C151.329 10.188 152.361 10.872 153.321 12.096ZM150.837 13.284C150.189 13.38 149.517 13.644 148.821 14.076C148.125 14.508 147.465 15.084 146.841 15.804C146.241 16.524 145.689 17.364 145.185 18.324C144.681 19.284 144.285 20.316 143.997 21.42C145.917 20.46 147.513 19.284 148.785 17.892C150.057 16.476 150.741 14.94 150.837 13.284ZM167.408 12.672C167.384 13.128 167.3 13.608 167.156 14.112C167.036 14.592 166.88 15.036 166.688 15.444C166.496 15.828 166.292 16.152 166.076 16.416C165.86 16.68 165.656 16.812 165.464 16.812C165.2 16.788 165.044 16.608 164.996 16.272C164.996 16.2 165.02 16.092 165.068 15.948C165.14 15.78 165.212 15.6 165.284 15.408C165.356 15.216 165.416 15.024 165.464 14.832C165.536 14.64 165.572 14.472 165.572 14.328C165.572 13.992 165.488 13.716 165.32 13.5C165.176 13.26 164.972 13.14 164.708 13.14C163.748 13.14 163.016 13.74 162.512 14.94C162.008 16.14 161.756 17.904 161.756 20.232C161.756 20.472 161.768 20.616 161.792 20.664C162.296 20.64 162.74 20.628 163.124 20.628C163.532 20.604 163.928 20.592 164.312 20.592C164.336 20.64 164.348 20.736 164.348 20.88C164.348 21.096 164.3 21.252 164.204 21.348C163.652 21.468 163.208 21.576 162.872 21.672C162.56 21.744 162.32 21.816 162.152 21.888C161.984 21.96 161.876 22.044 161.828 22.14C161.804 22.212 161.792 22.32 161.792 22.464C161.792 22.656 161.792 22.848 161.792 23.04C161.816 23.232 161.828 23.472 161.828 23.76C161.828 25.776 161.276 27.396 160.172 28.62C159.092 29.844 157.58 30.552 155.636 30.744C155.3 30.72 154.952 30.624 154.592 30.456C154.232 30.288 153.884 30.072 153.548 29.808C153.236 29.544 152.96 29.244 152.72 28.908C152.48 28.596 152.312 28.272 152.216 27.936C152.216 27.024 152.408 26.16 152.792 25.344C153.176 24.504 153.692 23.772 154.34 23.148C155.012 22.5 155.792 21.984 156.68 21.6C157.592 21.192 158.576 20.952 159.632 20.88C159.632 20.28 159.572 19.692 159.452 19.116C159.332 18.54 159.2 17.988 159.056 17.46C158.936 16.908 158.816 16.38 158.696 15.876C158.576 15.348 158.516 14.832 158.516 14.328C158.516 13.68 158.648 13.044 158.912 12.42C159.176 11.772 159.524 11.184 159.956 10.656C160.388 10.104 160.892 9.636 161.468 9.252C162.044 8.868 162.644 8.604 163.268 8.46C163.532 8.532 163.88 8.748 164.312 9.108C164.768 9.444 165.212 9.828 165.644 10.26C166.076 10.692 166.46 11.136 166.796 11.592C167.132 12.024 167.336 12.384 167.408 12.672ZM155.528 29.088C156.104 28.848 156.644 28.5 157.148 28.044C157.676 27.588 158.132 27.072 158.516 26.496C158.9 25.92 159.2 25.308 159.416 24.66C159.656 24.012 159.776 23.376 159.776 22.752C159.296 22.824 158.768 23.052 158.192 23.436C157.616 23.796 157.076 24.24 156.572 24.768C156.068 25.272 155.648 25.8 155.312 26.352C154.976 26.904 154.808 27.384 154.808 27.792C154.808 28.32 155.048 28.752 155.528 29.088Z" fill="black"/>
</svg>
