<svg width="628" height="710" viewBox="0 0 628 710" fill="none" xmlns="http://www.w3.org/2000/svg">
<path d="M422.643 0.72267C368.83 0.957557 321.374 55.3929 303.858 78.1455C270.242 71.4281 236.223 68.0529 201.904 68.376C175.721 68.6229 149.358 71.0481 122.894 75.6695C92.9079 48.8475 60.4756 28.348 25.7549 20.3589C-9.6183 40.7611 0.962443 72.0445 8.84072 102.693C54.1944 98.5313 100.454 114.688 146.929 139.255C156.995 146.753 167.031 154.6 177.033 162.818C190.69 216.708 197.378 270.064 199.475 323.23C166.023 331.11 100.648 353.518 81.6117 410.841L157.523 398.782L76.0848 444.551C73.9545 486.461 81.7497 520.844 92.5381 552.036L144.291 490.885L105.351 585.513C122.012 626.102 139.544 663.649 139.852 709.455C160.851 685.904 180.941 666.582 199.226 648.445L186.748 560.265L216.519 630.955C240.177 606.322 259.705 582.054 272.498 549.934L223.888 466.059L283.637 511.645C283.919 510.201 284.173 508.723 284.433 507.249C299.238 423.712 241.987 346.459 224.6 325.287C223.005 280.782 218.335 235.918 209.192 190.59C262.387 238.81 313.811 296.922 360.68 363.06C349.73 405.95 343.677 441.294 341.713 470.734L384.043 428.14L342.762 520.339C347.516 556.173 361.48 579.71 381.617 597.48L415.572 528.426L403.43 613.424C425.776 627.154 452.706 637.74 481.685 650.497C481.449 625.423 482.074 606.602 482.06 578.172L505.593 661.486C530.849 673.58 557.126 688.221 582.929 708.706C586.249 666.022 586.292 623.219 582.467 582.753L510.533 551.896L579.661 558.348C574.342 519.749 565.172 483.897 551.569 453.153L470.752 432.816L533.85 420.054C505.403 376.043 464.065 348.65 407.151 348.705C399.574 348.714 391.716 349.244 383.58 350.249C317.664 256.309 242.756 177.746 165.645 119.477C159.881 112.841 154.011 106.362 148.02 100.072C200.153 93.4057 251.718 95.7545 302.437 106.199C312.12 133.185 334.298 183.617 372.234 209.992L363.191 129.858L402.63 224.205C406.615 225.237 410.704 226.039 414.941 226.494C494.849 235.126 547.039 157.775 627.891 168.616C603.178 155.36 586.254 136.617 570.657 116.158L479.757 117.001L548.632 86.2858C529.7 60.728 508.369 35.2585 473.474 16.3434L408.283 60.5215L442.951 3.34083C436.121 1.53954 429.331 0.695741 422.645 0.72267H422.643Z" fill="black" fill-opacity="0.1"/>
</svg>
