<svg width="30" height="30" viewBox="0 0 30 30" fill="none" xmlns="http://www.w3.org/2000/svg">
<path d="M1.52542 20.491V20.0892H1.77966V17.9463H2.0339V16.8749H2.28814V16.0713H2.54237V15.2678H2.79661V14.732H3.05085V14.1963H3.30508V13.6606H3.55932V13.3928V13.1249H3.81356V12.5892H4.0678V12.0535H4.32203V11.7856H4.57627V11.5178H4.83051V10.982H5.08475V10.7142H5.33898V10.4463H5.59322V10.1785H5.84746H6.1017V9.91061H6.35593V9.64275H6.61017V9.3749H6.86441V9.10704H7.11864V8.83918H7.37288V8.57132H7.88136V8.30347H8.13559V8.03561H8.64407V7.76775H8.8983V7.4999H9.40678V7.23204H9.66102H9.91525V6.96418H10.4237V6.69632H10.9322V6.16061H11.6949V5.89275H12.7119V5.6249H13.9831V5.35704H14.6186H16.5254L16.5254 5.08918H17.0339V4.82132H17.2881V4.28561H17.0339V4.01775H16.7797V3.7499H16.2712V3.48204H13.9831V3.7499H12.9661V4.01775H11.9492V4.28561H11.4407V4.55347H10.678V4.82132H10.4237H10.1695H9.91525V5.08918H9.40678V5.35704H8.8983V5.6249H8.38983H8.13559V5.89275H7.88136V6.16061H7.37288V6.42847H7.11864V6.69632H6.86441H6.61017V6.96418H6.35593V7.23204H6.1017L6.1017 7.4999H5.84746V7.76775H5.59322V8.03561H5.33898V8.30347H5.08475V8.57132H4.83051V8.70525V8.83918H4.57627V9.10704H4.32203V9.3749H4.0678V9.64275H3.81356V9.91061H3.55932V10.1785H3.30508V10.4463V10.7142H3.05085V10.982H2.79661V11.2499V11.5178H2.54237V11.7856H2.28814V12.0535V12.3213H2.0339V12.5892H1.77966V12.857H1.52542V13.1249H1.27119V13.6606V13.9285H1.01695V14.1963H0.762712V14.4642H0.508475V14.732H0.254237V14.9999H0V13.6606V13.3928H0.254237V12.857V12.5892H0.508475V11.7856L0.762712 11.6517V10.982H1.01695V10.4463H1.27119V9.91061H1.52542V9.3749H1.77966V8.83918H2.0339V8.57132V8.30347H2.28814V8.03561H2.54237V7.76775H2.79661L2.92373 7.36597L3.05085 7.23204V6.96418H3.30508V6.69632H3.55932V6.42847H3.81356V6.16061H4.0678V5.89275H4.32203V5.6249H4.57627V5.35704H4.83051V5.08918H5.08475V4.82132H5.33898V4.55347H5.59322V4.28561H5.84746V4.01775H6.1017V3.7499H6.35593V3.48204H6.61017H6.86441H7.11864V3.21418H7.37288V2.94632H8.13559V2.67847H8.64407L8.8983 2.54454L9.27966 2.27668L9.78814 2.00882L10.5508 1.74097L11.4407 1.47311L12.5847 1.20525L13.4746 0.803467H18.8136V1.07132H19.8305V1.33918H20.8475V1.60704H21.6102V1.8749H22.1186V2.14275H22.3729V3.21418V3.48204H22.1186V3.7499H21.8644V4.28561H21.6102V4.55347H21.3559L21.3559 4.82132H21.1017V5.08918H20.8475V5.35704H20.5932V5.89275H20.339V6.42847H20.0847V6.96418H19.8305V7.4999H19.5763V8.03561H19.322V9.10704V9.3749H19.0678V10.4463H18.8136V11.2499H18.5593V12.0535H18.3051V13.1249H18.0508V13.6606H17.7966V14.1963H17.5424V14.4642V14.732H17.2881V14.9999V15.2678H17.0339V15.5356H16.7797V15.8035H16.5254V16.0713H16.2712V16.3392H16.0169V16.607H15.7627V16.8749H15.5085V17.1428H15V17.4106H14.7458V17.6785H14.2373V17.9463H13.7288V18.2142H12.9661V18.482H11.9492L11.9492 18.7499H11.1864V19.0178H9.91525V19.2856H8.64407V19.5535H8.38983V19.8213H7.62712V20.0892H6.86441V20.357H6.35593V20.6249H5.84746V20.8928H5.59322V21.1606H5.33898V21.4285H5.08475V21.6963H4.83051V21.9642H4.32203V22.232H4.0678V22.4999H3.81356V22.7678H3.55932V23.3035H3.30508V23.5713H3.05085V23.8392H2.79661V24.3749V24.6428H2.54237V24.9106H1.52542V20.491Z" fill="white"/>
<path d="M7.62724 21.9642V21.6964H8.38995V21.4285H8.89843V21.1606H9.66114V20.8928H11.1866V20.6249H11.695V20.3571H12.712V20.0892H12.9662H13.2205V19.8214H13.7289V19.5535H13.9832H14.4916V19.2856H15.2544V20.8928H15.0001V21.6964H14.7459V22.2321H14.4916V22.7678H14.2374V23.3035H13.9832V24.1071H13.7289V24.3749V24.6428H13.4747V24.9106H13.2205V25.1785H12.9662V25.4464H12.712V25.7142H12.4578V25.9821H12.2035V26.2499H11.9493V26.5178H11.695V26.7856H11.4408V27.0535H10.9323V27.3214H10.4239V27.5892H10.1696V27.8571H9.66114V28.1249H8.89843V28.3928H8.38995V28.6606H7.88148V28.9285H7.11877V29.1964H6.35606V29.4642H5.59334V29.7321H4.06792V29.9999H1.77979V29.1964H2.03402V28.9285H2.28826V28.3928H2.5425V27.8571H2.79673V27.3214H3.05097V26.7856H3.30521V26.2499H3.55945V25.9821H3.81368V25.4464H4.06792V24.9106H4.32216V24.6428H4.5764V24.3749H4.83063V24.1071H5.08487V23.8392H5.33911V23.5714H5.59334V23.3035H5.84758V23.0356H6.35606V22.7678H6.61029V22.4999H6.99165H7.37301V22.2321H7.62724V21.9642Z" fill="white"/>
<path d="M27.4577 0H29.4916V0.267857H29.7459V0.535714H30.0001V2.14286H29.7459V2.41071H29.4916H29.2374V2.67857H28.9832V2.94643H28.2204V3.21429H27.712V3.48214H27.2035V3.75H25.9323V3.48214H25.4238V1.33929H25.6781V1.07143H26.1865V0.803571H26.695V0.535714H26.9493V0.267857H27.4577V0Z" fill="white"/>
<path d="M17.5423 17.4108H17.7965V17.143H18.0508V16.8751H18.305V16.6072H18.5592V16.3394H18.8135V15.8037H19.0677V15.268H19.3219V14.7322H19.5762V14.1965H19.8304V13.393H20.0847V12.3215H20.3389V11.518H20.5931V10.4465H20.8474V9.3751H21.1016V8.57153H21.3558V7.76796H21.6101V7.23225H21.8643H22.1186V6.69653H22.3728V6.42868H22.627V5.6251H22.8813V5.35725H23.3897V5.08939H23.644V4.82153H24.2796H24.9152V5.08939H25.4236V5.35725H26.1863V5.89296H26.4406V6.42868H26.6948V6.69653H26.9491V7.23225H27.2033V7.76796H27.4575V8.57153H27.7118V9.3751H27.966V10.7144H28.2202V17.6787H27.966V18.7501H27.7118V19.5537H27.4575V20.3572H27.2033V20.893H26.9491V21.6965H26.6948V21.9644H26.4406V22.5001H26.1863V22.768H25.9321V23.0358H25.6779V23.3037V23.7071H25.4236V24.0001H24.9999L25.0095 24.3751H24.6609V24.643H24.4067V24.9108H24.1525V25.1787H23.8982V25.4465H23.644V25.7144H23.3897V25.9822H23.1355V26.2501H22.627V26.518H22.3728V26.7858H21.8643V27.0537H21.6101V27.3215H21.1016V27.5894H20.5931V27.8572H20.0847V28.1251H19.5762V28.393H18.8135V28.6608H17.7965V28.9287H16.7796V29.1965H16.5253H11.6948V28.6608H11.9491V28.393H12.2033V28.1251H12.4575V27.8572H12.966V27.5894H13.2202V27.3215H13.4745V27.0537H13.7287V26.7858H13.983V26.518H14.4914V26.2501H14.7457V25.9822H14.9999V25.7144H15.2541V25.1787H15.5084V24.643H15.7626V24.1072H16.0169V23.8394H16.2711V23.3037H16.5253V22.768H16.7796V21.9644H17.0338V20.6251H17.288V19.5537H17.5423V17.4108Z" fill="white"/>
</svg>
