<svg width="202" height="22" viewBox="0 0 202 22" fill="none" xmlns="http://www.w3.org/2000/svg">
<path d="M22.7881 14.675H18.2281L17.3881 17H15.9481L19.7281 6.605H21.3031L25.0681 17H23.6281L22.7881 14.675ZM22.3981 13.565L20.5081 8.285L18.6181 13.565H22.3981ZM28.0805 5.9V17H26.7155V5.9H28.0805ZM31.772 5.9V17H30.407V5.9H31.772ZM37.5874 11.765C37.5874 10.745 37.8174 9.83 38.2774 9.02C38.7374 8.2 39.3624 7.56 40.1524 7.1C40.9524 6.64 41.8374 6.41 42.8074 6.41C43.9474 6.41 44.9424 6.685 45.7924 7.235C46.6424 7.785 47.2624 8.565 47.6524 9.575H46.0174C45.7274 8.945 45.3074 8.46 44.7574 8.12C44.2174 7.78 43.5674 7.61 42.8074 7.61C42.0774 7.61 41.4224 7.78 40.8424 8.12C40.2624 8.46 39.8074 8.945 39.4774 9.575C39.1474 10.195 38.9824 10.925 38.9824 11.765C38.9824 12.595 39.1474 13.325 39.4774 13.955C39.8074 14.575 40.2624 15.055 40.8424 15.395C41.4224 15.735 42.0774 15.905 42.8074 15.905C43.5674 15.905 44.2174 15.74 44.7574 15.41C45.3074 15.07 45.7274 14.585 46.0174 13.955H47.6524C47.2624 14.955 46.6424 15.73 45.7924 16.28C44.9424 16.82 43.9474 17.09 42.8074 17.09C41.8374 17.09 40.9524 16.865 40.1524 16.415C39.3624 15.955 38.7374 15.32 38.2774 14.51C37.8174 13.7 37.5874 12.785 37.5874 11.765ZM53.2693 17.135C52.4993 17.135 51.7993 16.96 51.1693 16.61C50.5493 16.26 50.0593 15.765 49.6993 15.125C49.3493 14.475 49.1743 13.725 49.1743 12.875C49.1743 12.035 49.3543 11.295 49.7143 10.655C50.0843 10.005 50.5843 9.51 51.2143 9.17C51.8443 8.82 52.5493 8.645 53.3293 8.645C54.1093 8.645 54.8143 8.82 55.4443 9.17C56.0743 9.51 56.5693 10 56.9293 10.64C57.2993 11.28 57.4843 12.025 57.4843 12.875C57.4843 13.725 57.2943 14.475 56.9143 15.125C56.5443 15.765 56.0393 16.26 55.3993 16.61C54.7593 16.96 54.0493 17.135 53.2693 17.135ZM53.2693 15.935C53.7593 15.935 54.2193 15.82 54.6493 15.59C55.0793 15.36 55.4243 15.015 55.6843 14.555C55.9543 14.095 56.0893 13.535 56.0893 12.875C56.0893 12.215 55.9593 11.655 55.6993 11.195C55.4393 10.735 55.0993 10.395 54.6793 10.175C54.2593 9.945 53.8043 9.83 53.3143 9.83C52.8143 9.83 52.3543 9.945 51.9343 10.175C51.5243 10.395 51.1943 10.735 50.9443 11.195C50.6943 11.655 50.5693 12.215 50.5693 12.875C50.5693 13.545 50.6893 14.11 50.9293 14.57C51.1793 15.03 51.5093 15.375 51.9193 15.605C52.3293 15.825 52.7793 15.935 53.2693 15.935ZM60.644 10.295C60.914 9.825 61.314 9.435 61.844 9.125C62.384 8.805 63.009 8.645 63.719 8.645C64.449 8.645 65.109 8.82 65.699 9.17C66.299 9.52 66.769 10.015 67.109 10.655C67.449 11.285 67.619 12.02 67.619 12.86C67.619 13.69 67.449 14.43 67.109 15.08C66.769 15.73 66.299 16.235 65.699 16.595C65.109 16.955 64.449 17.135 63.719 17.135C63.019 17.135 62.399 16.98 61.859 16.67C61.329 16.35 60.924 15.955 60.644 15.485V20.9H59.279V8.78H60.644V10.295ZM66.224 12.86C66.224 12.24 66.099 11.7 65.849 11.24C65.599 10.78 65.259 10.43 64.829 10.19C64.409 9.95 63.944 9.83 63.434 9.83C62.934 9.83 62.469 9.955 62.039 10.205C61.619 10.445 61.279 10.8 61.019 11.27C60.769 11.73 60.644 12.265 60.644 12.875C60.644 13.495 60.769 14.04 61.019 14.51C61.279 14.97 61.619 15.325 62.039 15.575C62.469 15.815 62.934 15.935 63.434 15.935C63.944 15.935 64.409 15.815 64.829 15.575C65.259 15.325 65.599 14.97 65.849 14.51C66.099 14.04 66.224 13.49 66.224 12.86ZM76.4957 8.78L71.5457 20.87H70.1357L71.7557 16.91L68.4407 8.78H69.9557L72.5357 15.44L75.0857 8.78H76.4957ZM79.2329 10.115C79.4729 9.645 79.8129 9.28 80.2529 9.02C80.7029 8.76 81.2479 8.63 81.8879 8.63V10.04H81.5279C79.9979 10.04 79.2329 10.87 79.2329 12.53V17H77.8679V8.78H79.2329V10.115ZM84.1686 7.445C83.9086 7.445 83.6886 7.355 83.5086 7.175C83.3286 6.995 83.2386 6.775 83.2386 6.515C83.2386 6.255 83.3286 6.035 83.5086 5.855C83.6886 5.675 83.9086 5.585 84.1686 5.585C84.4186 5.585 84.6286 5.675 84.7986 5.855C84.9786 6.035 85.0686 6.255 85.0686 6.515C85.0686 6.775 84.9786 6.995 84.7986 7.175C84.6286 7.355 84.4186 7.445 84.1686 7.445ZM84.8286 8.78V17H83.4636V8.78H84.8286ZM90.545 8.645C91.255 8.645 91.875 8.8 92.405 9.11C92.945 9.42 93.345 9.81 93.605 10.28V8.78H94.985V17.18C94.985 17.93 94.825 18.595 94.505 19.175C94.185 19.765 93.725 20.225 93.125 20.555C92.535 20.885 91.845 21.05 91.055 21.05C89.975 21.05 89.075 20.795 88.355 20.285C87.635 19.775 87.21 19.08 87.08 18.2H88.43C88.58 18.7 88.89 19.1 89.36 19.4C89.83 19.71 90.395 19.865 91.055 19.865C91.805 19.865 92.415 19.63 92.885 19.16C93.365 18.69 93.605 18.03 93.605 17.18V15.455C93.335 15.935 92.935 16.335 92.405 16.655C91.875 16.975 91.255 17.135 90.545 17.135C89.815 17.135 89.15 16.955 88.55 16.595C87.96 16.235 87.495 15.73 87.155 15.08C86.815 14.43 86.645 13.69 86.645 12.86C86.645 12.02 86.815 11.285 87.155 10.655C87.495 10.015 87.96 9.52 88.55 9.17C89.15 8.82 89.815 8.645 90.545 8.645ZM93.605 12.875C93.605 12.255 93.48 11.715 93.23 11.255C92.98 10.795 92.64 10.445 92.21 10.205C91.79 9.955 91.325 9.83 90.815 9.83C90.305 9.83 89.84 9.95 89.42 10.19C89 10.43 88.665 10.78 88.415 11.24C88.165 11.7 88.04 12.24 88.04 12.86C88.04 13.49 88.165 14.04 88.415 14.51C88.665 14.97 89 15.325 89.42 15.575C89.84 15.815 90.305 15.935 90.815 15.935C91.325 15.935 91.79 15.815 92.21 15.575C92.64 15.325 92.98 14.97 93.23 14.51C93.48 14.04 93.605 13.495 93.605 12.875ZM101.372 8.63C101.992 8.63 102.552 8.765 103.052 9.035C103.552 9.295 103.942 9.69 104.222 10.22C104.512 10.75 104.657 11.395 104.657 12.155V17H103.307V12.35C103.307 11.53 103.102 10.905 102.692 10.475C102.282 10.035 101.722 9.815 101.012 9.815C100.292 9.815 99.7167 10.04 99.2867 10.49C98.8667 10.94 98.6567 11.595 98.6567 12.455V17H97.2917V5.9H98.6567V9.95C98.9267 9.53 99.2967 9.205 99.7667 8.975C100.247 8.745 100.782 8.63 101.372 8.63ZM108.551 9.905V14.75C108.551 15.15 108.636 15.435 108.806 15.605C108.976 15.765 109.271 15.845 109.691 15.845H110.696V17H109.466C108.706 17 108.136 16.825 107.756 16.475C107.376 16.125 107.186 15.55 107.186 14.75V9.905H106.121V8.78H107.186V6.71H108.551V8.78H110.696V9.905H108.551ZM115.26 17.135C114.63 17.135 114.065 17.03 113.565 16.82C113.065 16.6 112.67 16.3 112.38 15.92C112.09 15.53 111.93 15.085 111.9 14.585H113.31C113.35 14.995 113.54 15.33 113.88 15.59C114.23 15.85 114.685 15.98 115.245 15.98C115.765 15.98 116.175 15.865 116.475 15.635C116.775 15.405 116.925 15.115 116.925 14.765C116.925 14.405 116.765 14.14 116.445 13.97C116.125 13.79 115.63 13.615 114.96 13.445C114.35 13.285 113.85 13.125 113.46 12.965C113.08 12.795 112.75 12.55 112.47 12.23C112.2 11.9 112.065 11.47 112.065 10.94C112.065 10.52 112.19 10.135 112.44 9.785C112.69 9.435 113.045 9.16 113.505 8.96C113.965 8.75 114.49 8.645 115.08 8.645C115.99 8.645 116.725 8.875 117.285 9.335C117.845 9.795 118.145 10.425 118.185 11.225H116.82C116.79 10.795 116.615 10.45 116.295 10.19C115.985 9.93 115.565 9.8 115.035 9.8C114.545 9.8 114.155 9.905 113.865 10.115C113.575 10.325 113.43 10.6 113.43 10.94C113.43 11.21 113.515 11.435 113.685 11.615C113.865 11.785 114.085 11.925 114.345 12.035C114.615 12.135 114.985 12.25 115.455 12.38C116.045 12.54 116.525 12.7 116.895 12.86C117.265 13.01 117.58 13.24 117.84 13.55C118.11 13.86 118.25 14.265 118.26 14.765C118.26 15.215 118.135 15.62 117.885 15.98C117.635 16.34 117.28 16.625 116.82 16.835C116.37 17.035 115.85 17.135 115.26 17.135ZM125.551 10.115C125.791 9.645 126.131 9.28 126.571 9.02C127.021 8.76 127.566 8.63 128.206 8.63V10.04H127.846C126.316 10.04 125.551 10.87 125.551 12.53V17H124.186V8.78H125.551V10.115ZM137.282 12.575C137.282 12.835 137.267 13.11 137.237 13.4H130.667C130.717 14.21 130.992 14.845 131.492 15.305C132.002 15.755 132.617 15.98 133.337 15.98C133.927 15.98 134.417 15.845 134.807 15.575C135.207 15.295 135.487 14.925 135.647 14.465H137.117C136.897 15.255 136.457 15.9 135.797 16.4C135.137 16.89 134.317 17.135 133.337 17.135C132.557 17.135 131.857 16.96 131.237 16.61C130.627 16.26 130.147 15.765 129.797 15.125C129.447 14.475 129.272 13.725 129.272 12.875C129.272 12.025 129.442 11.28 129.782 10.64C130.122 10 130.597 9.51 131.207 9.17C131.827 8.82 132.537 8.645 133.337 8.645C134.117 8.645 134.807 8.815 135.407 9.155C136.007 9.495 136.467 9.965 136.787 10.565C137.117 11.155 137.282 11.825 137.282 12.575ZM135.872 12.29C135.872 11.77 135.757 11.325 135.527 10.955C135.297 10.575 134.982 10.29 134.582 10.1C134.192 9.9 133.757 9.8 133.277 9.8C132.587 9.8 131.997 10.02 131.507 10.46C131.027 10.9 130.752 11.51 130.682 12.29H135.872ZM141.994 17.135C141.364 17.135 140.799 17.03 140.299 16.82C139.799 16.6 139.404 16.3 139.114 15.92C138.824 15.53 138.664 15.085 138.634 14.585H140.044C140.084 14.995 140.274 15.33 140.614 15.59C140.964 15.85 141.419 15.98 141.979 15.98C142.499 15.98 142.909 15.865 143.209 15.635C143.509 15.405 143.659 15.115 143.659 14.765C143.659 14.405 143.499 14.14 143.179 13.97C142.859 13.79 142.364 13.615 141.694 13.445C141.084 13.285 140.584 13.125 140.194 12.965C139.814 12.795 139.484 12.55 139.204 12.23C138.934 11.9 138.799 11.47 138.799 10.94C138.799 10.52 138.924 10.135 139.174 9.785C139.424 9.435 139.779 9.16 140.239 8.96C140.699 8.75 141.224 8.645 141.814 8.645C142.724 8.645 143.459 8.875 144.019 9.335C144.579 9.795 144.879 10.425 144.919 11.225H143.554C143.524 10.795 143.349 10.45 143.029 10.19C142.719 9.93 142.299 9.8 141.769 9.8C141.279 9.8 140.889 9.905 140.599 10.115C140.309 10.325 140.164 10.6 140.164 10.94C140.164 11.21 140.249 11.435 140.419 11.615C140.599 11.785 140.819 11.925 141.079 12.035C141.349 12.135 141.719 12.25 142.189 12.38C142.779 12.54 143.259 12.7 143.629 12.86C143.999 13.01 144.314 13.24 144.574 13.55C144.844 13.86 144.984 14.265 144.994 14.765C144.994 15.215 144.869 15.62 144.619 15.98C144.369 16.34 144.014 16.625 143.554 16.835C143.104 17.035 142.584 17.135 141.994 17.135ZM154.421 12.575C154.421 12.835 154.406 13.11 154.376 13.4H147.806C147.856 14.21 148.131 14.845 148.631 15.305C149.141 15.755 149.756 15.98 150.476 15.98C151.066 15.98 151.556 15.845 151.946 15.575C152.346 15.295 152.626 14.925 152.786 14.465H154.256C154.036 15.255 153.596 15.9 152.936 16.4C152.276 16.89 151.456 17.135 150.476 17.135C149.696 17.135 148.996 16.96 148.376 16.61C147.766 16.26 147.286 15.765 146.936 15.125C146.586 14.475 146.411 13.725 146.411 12.875C146.411 12.025 146.581 11.28 146.921 10.64C147.261 10 147.736 9.51 148.346 9.17C148.966 8.82 149.676 8.645 150.476 8.645C151.256 8.645 151.946 8.815 152.546 9.155C153.146 9.495 153.606 9.965 153.926 10.565C154.256 11.155 154.421 11.825 154.421 12.575ZM153.011 12.29C153.011 11.77 152.896 11.325 152.666 10.955C152.436 10.575 152.121 10.29 151.721 10.1C151.331 9.9 150.896 9.8 150.416 9.8C149.726 9.8 149.136 10.02 148.646 10.46C148.166 10.9 147.891 11.51 147.821 12.29H153.011ZM157.587 10.115C157.827 9.645 158.167 9.28 158.607 9.02C159.057 8.76 159.602 8.63 160.242 8.63V10.04H159.882C158.352 10.04 157.587 10.87 157.587 12.53V17H156.222V8.78H157.587V10.115ZM164.878 15.74L167.428 8.78H168.883L165.658 17H164.068L160.843 8.78H162.313L164.878 15.74ZM177.726 12.575C177.726 12.835 177.711 13.11 177.681 13.4H171.111C171.161 14.21 171.436 14.845 171.936 15.305C172.446 15.755 173.061 15.98 173.781 15.98C174.371 15.98 174.861 15.845 175.251 15.575C175.651 15.295 175.931 14.925 176.091 14.465H177.561C177.341 15.255 176.901 15.9 176.241 16.4C175.581 16.89 174.761 17.135 173.781 17.135C173.001 17.135 172.301 16.96 171.681 16.61C171.071 16.26 170.591 15.765 170.241 15.125C169.891 14.475 169.716 13.725 169.716 12.875C169.716 12.025 169.886 11.28 170.226 10.64C170.566 10 171.041 9.51 171.651 9.17C172.271 8.82 172.981 8.645 173.781 8.645C174.561 8.645 175.251 8.815 175.851 9.155C176.451 9.495 176.911 9.965 177.231 10.565C177.561 11.155 177.726 11.825 177.726 12.575ZM176.316 12.29C176.316 11.77 176.201 11.325 175.971 10.955C175.741 10.575 175.426 10.29 175.026 10.1C174.636 9.9 174.201 9.8 173.721 9.8C173.031 9.8 172.441 10.02 171.951 10.46C171.471 10.9 171.196 11.51 171.126 12.29H176.316ZM179.018 12.86C179.018 12.02 179.188 11.285 179.528 10.655C179.868 10.015 180.333 9.52 180.923 9.17C181.523 8.82 182.193 8.645 182.933 8.645C183.573 8.645 184.168 8.795 184.718 9.095C185.268 9.385 185.688 9.77 185.978 10.25V5.9H187.358V17H185.978V15.455C185.708 15.945 185.308 16.35 184.778 16.67C184.248 16.98 183.628 17.135 182.918 17.135C182.188 17.135 181.523 16.955 180.923 16.595C180.333 16.235 179.868 15.73 179.528 15.08C179.188 14.43 179.018 13.69 179.018 12.86ZM185.978 12.875C185.978 12.255 185.853 11.715 185.603 11.255C185.353 10.795 185.013 10.445 184.583 10.205C184.163 9.955 183.698 9.83 183.188 9.83C182.678 9.83 182.213 9.95 181.793 10.19C181.373 10.43 181.038 10.78 180.788 11.24C180.538 11.7 180.413 12.24 180.413 12.86C180.413 13.49 180.538 14.04 180.788 14.51C181.038 14.97 181.373 15.325 181.793 15.575C182.213 15.815 182.678 15.935 183.188 15.935C183.698 15.935 184.163 15.815 184.583 15.575C185.013 15.325 185.353 14.97 185.603 14.51C185.853 14.04 185.978 13.495 185.978 12.875Z" fill="#7D7A74"/>
<path d="M4.848 5.32966C4.878 5.13115 4.944 4.9567 5.028 4.81233C5.208 4.47547 5.514 4.30102 5.928 4.29501C6.198 4.29501 6.444 4.41531 6.618 4.58976C6.786 4.77624 6.9 5.0349 6.9 5.29356H7.98C7.968 5.01084 7.914 4.75218 7.8 4.51156C7.71 4.28297 7.572 4.07845 7.392 3.91002C6.522 3.10395 4.908 3.21825 4.17 4.13259C3.396 5.13716 3.378 6.89366 4.164 7.89824C4.89 8.79454 6.48 8.92086 7.344 8.12081C7.53 7.97042 7.68 7.78395 7.8 7.56739C7.896 7.35084 7.962 7.12225 7.968 6.87562H6.9C6.9 7.00194 6.858 7.11623 6.804 7.2185C6.75 7.33279 6.678 7.42302 6.6 7.50122C6.402 7.65762 6.168 7.74184 5.916 7.74184C5.7 7.73582 5.52 7.69371 5.382 7.60348C5.22645 7.5158 5.10255 7.38104 5.028 7.2185C4.728 6.67711 4.776 5.92518 4.848 5.32966ZM6 0C2.7 0 0 2.70694 0 6.01541C0.318 13.9979 11.7 13.9919 12 6.01541C12 2.70694 9.3 0 6 0ZM6 10.8277C3.354 10.8277 1.2 8.66821 1.2 6.01541C1.464 -0.36694 10.536 -0.36694 10.8 6.01541C10.8 8.66821 8.646 10.8277 6 10.8277Z" fill="#7D7A74"/>
</svg>
