<svg width="36" height="29" viewBox="0 0 36 29" fill="none" xmlns="http://www.w3.org/2000/svg">
<path d="M25.6407 17.4824C25.2104 17.3033 23.0668 16.4526 22.6681 16.3374C22.2694 16.2159 21.9772 16.1583 21.6891 16.5165C21.3969 16.8715 20.5679 17.6616 20.3074 17.9014C20.0547 18.1381 19.7981 18.1669 19.3678 17.991C16.8097 16.9547 15.1319 16.1423 13.4462 13.7979C13.0002 13.1742 13.8923 13.2189 14.7253 11.8724C14.8674 11.6357 14.7964 11.4342 14.6858 11.2551C14.5753 11.076 13.7068 9.34246 13.3436 8.63561C12.9923 7.94794 12.6291 8.0439 12.3646 8.0311C12.1119 8.01831 11.8237 8.01831 11.5316 8.01831C11.2395 8.01831 10.7697 8.10787 10.371 8.45649C9.97226 8.81152 8.84717 9.6655 8.84717 11.399C8.84717 13.1326 10.4065 14.8118 10.6197 15.0484C10.8408 15.2851 13.6871 18.8418 18.0572 20.3738C20.8206 21.3397 21.9022 21.4229 23.2839 21.2566C24.1248 21.1542 25.8578 20.4058 26.2171 19.5774C26.5763 18.7522 26.5763 18.0454 26.4697 17.8982C26.3631 17.7415 26.071 17.652 25.6407 17.4824Z" fill="white"/>
<path d="M33.9979 9.11876C33.1057 7.40121 31.8266 5.85957 30.1962 4.53542C28.5658 3.21447 26.663 2.17498 24.5392 1.45534C22.3679 0.716501 20.0625 0.342285 17.6859 0.342285H17.607C15.2147 0.35188 12.8974 0.735691 10.7182 1.49052C8.61412 2.21976 6.72711 3.25605 5.1125 4.577C3.49789 5.89795 2.23068 7.43319 1.35429 9.14435C0.446315 10.9163 -0.0116192 12.8001 0.000223964 14.7384C0.0120671 16.9581 0.667386 19.1618 1.89512 21.132V25.9936C1.89512 26.806 2.70835 27.4649 3.71107 27.4649H9.71553C12.1473 28.4596 14.8673 28.9906 17.607 29.0002H17.6899C20.0546 29.0002 22.3482 28.6291 24.5076 27.9031C26.6196 27.1899 28.5184 26.1664 30.1449 24.8582C31.7753 23.55 33.0583 22.0212 33.9544 20.3164C34.8861 18.5509 35.3598 16.6734 35.3717 14.7352C35.3835 12.7874 34.9177 10.8971 33.9979 9.11876ZM28.0329 23.1279C25.2655 25.3476 21.5942 26.5694 17.6859 26.5694H17.6188C15.2384 26.5598 12.8737 26.08 10.7854 25.178L10.4537 25.0341H4.89538V20.5307L4.71773 20.2621C3.60448 18.5701 3.01232 16.6542 3.00048 14.7256C2.98469 11.5368 4.48876 8.54304 7.24821 6.28815C10.0037 4.03327 13.6869 2.78588 17.6228 2.77309H17.6899C19.6637 2.77309 21.5784 3.08333 23.3825 3.69743C25.1432 4.29554 26.7222 5.15591 28.0802 6.25617C29.4343 7.35323 30.5002 8.6358 31.2384 10.0623C32.0043 11.54 32.3872 13.1072 32.3793 14.7256C32.3556 17.9112 30.8121 20.8954 28.0329 23.1279Z" fill="white"/>
</svg>
